M48
; DRILL file {KiCad (5.1.10)-1} date 08/16/21 10:44:42
; FORMAT={-:-/ absolute / metric / decimal}
; #@! TF.CreationDate,2021-08-16T10:44:42+02:00
; #@! TF.GenerationSoftware,Kicad,Pcbnew,(5.1.10)-1
; #@! TF.FileFunction,Plated,1,2,PTH
FMAT,2
METRIC
T1C0.800
T2C1.000
%
G90
G05
T1
X129.286Y-67.818
X129.286Y-77.978
X129.286Y-82.296
X129.286Y-92.456
X140.081Y-101.854
X140.081Y-104.354
X152.4Y-115.316
X158.75Y-67.818
X158.75Y-77.978
X158.75Y-82.296
X158.75Y-92.456
X160.02Y-115.316
T2
X121.158Y-66.802
X121.158Y-69.342
X121.158Y-71.882
X121.158Y-74.422
X126.736Y-102.95
X129.276Y-102.95
X131.816Y-102.95
X134.356Y-102.95
X142.494Y-113.03
X145.034Y-113.03
X151.13Y-100.711
X151.13Y-103.251
X151.13Y-105.791
X159.004Y-99.314
X159.004Y-101.854
X159.004Y-104.394
X159.004Y-106.934
T0
M30
