M48
; DRILL file {KiCad (5.1.7)-1} date 11/12/20 19:51:29
; FORMAT={-:-/ absolute / inch / decimal}
; #@! TF.CreationDate,2020-11-12T19:51:29+01:00
; #@! TF.GenerationSoftware,Kicad,Pcbnew,(5.1.7)-1
; #@! TF.FileFunction,Plated,1,2,PTH
FMAT,2
INCH
T1C0.0315
T2C0.0394
%
G90
G05
T1
X6.25Y-3.24
X6.25Y-3.64
X6.0Y-4.54
X6.3Y-4.54
X5.515Y-4.01
X5.515Y-4.1084
X5.09Y-3.24
X5.09Y-3.64
X6.25Y-2.67
X6.25Y-3.07
X5.09Y-2.67
X5.09Y-3.07
T2
X6.26Y-3.91
X6.26Y-4.01
X6.26Y-4.11
X6.26Y-4.21
X4.9896Y-4.0531
X5.0896Y-4.0531
X5.1896Y-4.0531
X5.2896Y-4.0531
X4.77Y-2.63
X4.77Y-2.73
X4.77Y-2.83
X4.77Y-2.93
X5.95Y-3.965
X5.95Y-4.065
X5.95Y-4.165
X5.61Y-4.45
X5.71Y-4.45
T0
M30
