%TF.GenerationSoftware,KiCad,Pcbnew,(5.1.7)-1*%
%TF.CreationDate,2020-11-12T19:53:12+01:00*%
%TF.ProjectId,feinstaub,6665696e-7374-4617-9562-2e6b69636164,rev?*%
%TF.SameCoordinates,Original*%
%TF.FileFunction,Copper,L1,Top*%
%TF.FilePolarity,Positive*%
%FSLAX46Y46*%
G04 Gerber Fmt 4.6, Leading zero omitted, Abs format (unit mm)*
G04 Created by KiCad (PCBNEW (5.1.7)-1) date 2020-11-12 19:53:12*
%MOMM*%
%LPD*%
G01*
G04 APERTURE LIST*
%TA.AperFunction,ComponentPad*%
%ADD10C,1.600000*%
%TD*%
%TA.AperFunction,ComponentPad*%
%ADD11O,1.700000X1.700000*%
%TD*%
%TA.AperFunction,ComponentPad*%
%ADD12R,1.700000X1.700000*%
%TD*%
%TA.AperFunction,SMDPad,CuDef*%
%ADD13R,2.500000X1.000000*%
%TD*%
%TA.AperFunction,ComponentPad*%
%ADD14O,1.600000X1.600000*%
%TD*%
%TA.AperFunction,ComponentPad*%
%ADD15R,1.600000X1.600000*%
%TD*%
%TA.AperFunction,Conductor*%
%ADD16C,0.500000*%
%TD*%
%TA.AperFunction,Conductor*%
%ADD17C,0.250000*%
%TD*%
%TA.AperFunction,Conductor*%
%ADD18C,0.100000*%
%TD*%
G04 APERTURE END LIST*
D10*
%TO.P,C1,2*%
%TO.N,GND*%
X140081000Y-104354000D03*
%TO.P,C1,1*%
%TO.N,+3V3*%
X140081000Y-101854000D03*
%TD*%
D11*
%TO.P,J2,4*%
%TO.N,SDS_TX*%
X159004000Y-106934000D03*
%TO.P,J2,3*%
%TO.N,SDS_RX*%
X159004000Y-104394000D03*
%TO.P,J2,2*%
%TO.N,GND*%
X159004000Y-101854000D03*
D12*
%TO.P,J2,1*%
%TO.N,VCC*%
X159004000Y-99314000D03*
%TD*%
D11*
%TO.P,U2,4*%
%TO.N,SDA*%
X126736000Y-102950000D03*
%TO.P,U2,3*%
%TO.N,SCL*%
X129276000Y-102950000D03*
%TO.P,U2,2*%
%TO.N,GND*%
X131816000Y-102950000D03*
D12*
%TO.P,U2,1*%
%TO.N,+3V3*%
X134356000Y-102950000D03*
%TD*%
D11*
%TO.P,J1,4*%
%TO.N,+3V3*%
X121158000Y-66802000D03*
%TO.P,J1,3*%
%TO.N,TXD*%
X121158000Y-69342000D03*
%TO.P,J1,2*%
%TO.N,RXD*%
X121158000Y-71882000D03*
D12*
%TO.P,J1,1*%
%TO.N,GND*%
X121158000Y-74422000D03*
%TD*%
D11*
%TO.P,U3,3*%
%TO.N,VCC*%
X151130000Y-105791000D03*
%TO.P,U3,2*%
%TO.N,+3V3*%
X151130000Y-103251000D03*
D12*
%TO.P,U3,1*%
%TO.N,GND*%
X151130000Y-100711000D03*
%TD*%
D13*
%TO.P,U1,22*%
%TO.N,TXD*%
X151618000Y-72700000D03*
%TO.P,U1,21*%
%TO.N,RXD*%
X151618000Y-74700000D03*
%TO.P,U1,20*%
%TO.N,SDS_TX*%
X151618000Y-76700000D03*
%TO.P,U1,19*%
%TO.N,SDS_RX*%
X151618000Y-78700000D03*
%TO.P,U1,18*%
%TO.N,SDA*%
X151618000Y-80700000D03*
%TO.P,U1,17*%
%TO.N,SCL*%
X151618000Y-82700000D03*
%TO.P,U1,16*%
%TO.N,Net-(R2-Pad2)*%
X151618000Y-84700000D03*
%TO.P,U1,15*%
%TO.N,GND*%
X151618000Y-86700000D03*
%TO.P,U1,8*%
%TO.N,+3V3*%
X136418000Y-86700000D03*
%TO.P,U1,7*%
%TO.N,Net-(U1-Pad7)*%
X136418000Y-84700000D03*
%TO.P,U1,6*%
%TO.N,Net-(U1-Pad6)*%
X136418000Y-82700000D03*
%TO.P,U1,5*%
%TO.N,Net-(U1-Pad5)*%
X136418000Y-80700000D03*
%TO.P,U1,4*%
%TO.N,RST*%
X136418000Y-78700000D03*
%TO.P,U1,3*%
%TO.N,Net-(R3-Pad1)*%
X136418000Y-76700000D03*
%TO.P,U1,2*%
%TO.N,Net-(U1-Pad2)*%
X136418000Y-74700000D03*
%TO.P,U1,1*%
%TO.N,RST*%
X136418000Y-72700000D03*
%TD*%
D14*
%TO.P,SW1,2*%
%TO.N,GND*%
X160020000Y-115316000D03*
D15*
%TO.P,SW1,1*%
%TO.N,SDA*%
X152400000Y-115316000D03*
%TD*%
D14*
%TO.P,R4,2*%
%TO.N,+3V3*%
X129286000Y-92456000D03*
D10*
%TO.P,R4,1*%
%TO.N,RST*%
X129286000Y-82296000D03*
%TD*%
D14*
%TO.P,R3,2*%
%TO.N,+3V3*%
X129286000Y-67818000D03*
D10*
%TO.P,R3,1*%
%TO.N,Net-(R3-Pad1)*%
X129286000Y-77978000D03*
%TD*%
D14*
%TO.P,R2,2*%
%TO.N,Net-(R2-Pad2)*%
X158750000Y-82296000D03*
D10*
%TO.P,R2,1*%
%TO.N,GND*%
X158750000Y-92456000D03*
%TD*%
D14*
%TO.P,R1,2*%
%TO.N,SDA*%
X158750000Y-77978000D03*
D10*
%TO.P,R1,1*%
%TO.N,+3V3*%
X158750000Y-67818000D03*
%TD*%
D11*
%TO.P,J3,2*%
%TO.N,VCC*%
X142494000Y-113030000D03*
D12*
%TO.P,J3,1*%
%TO.N,GND*%
X145034000Y-113030000D03*
%TD*%
D16*
%TO.N,+3V3*%
X135042000Y-86700000D02*
X129286000Y-92456000D01*
X136418000Y-86700000D02*
X135042000Y-86700000D01*
X140081000Y-101854000D02*
X136906000Y-98679000D01*
X136906000Y-98679000D02*
X131699000Y-98679000D01*
X129286000Y-96266000D02*
X129286000Y-92456000D01*
X131699000Y-98679000D02*
X129286000Y-96266000D01*
D17*
%TO.N,RXD*%
X121158000Y-71882000D02*
X122231990Y-70808010D01*
X125797600Y-70808010D02*
X126559600Y-71570010D01*
X122231990Y-70808010D02*
X125797600Y-70808010D01*
X138751600Y-71570010D02*
X140333590Y-73152000D01*
X126559600Y-71570010D02*
X138751600Y-71570010D01*
X140333590Y-73152000D02*
X148844000Y-73152000D01*
X150392000Y-74700000D02*
X151618000Y-74700000D01*
X148844000Y-73152000D02*
X150392000Y-74700000D01*
%TO.N,TXD*%
X151618000Y-72700000D02*
X140518000Y-72700000D01*
X140518000Y-72700000D02*
X138938000Y-71120000D01*
X138938000Y-71120000D02*
X126746000Y-71120000D01*
X126746000Y-71120000D02*
X125984000Y-70358000D01*
X122174000Y-70358000D02*
X121158000Y-69342000D01*
X125984000Y-70358000D02*
X122174000Y-70358000D01*
%TO.N,SDA*%
X156028000Y-80700000D02*
X158750000Y-77978000D01*
X151618000Y-80700000D02*
X156028000Y-80700000D01*
X152400000Y-115316000D02*
X146964400Y-109880400D01*
X133666400Y-109880400D02*
X126736000Y-102950000D01*
X146964400Y-109880400D02*
X133666400Y-109880400D01*
%TO.N,Net-(R2-Pad2)*%
X156346000Y-84700000D02*
X158750000Y-82296000D01*
X151618000Y-84700000D02*
X156346000Y-84700000D01*
%TO.N,Net-(R3-Pad1)*%
X130564000Y-76700000D02*
X136418000Y-76700000D01*
X129286000Y-77978000D02*
X130564000Y-76700000D01*
%TO.N,RST*%
X132882000Y-78700000D02*
X136418000Y-78700000D01*
X129286000Y-82296000D02*
X132882000Y-78700000D01*
X136418000Y-78700000D02*
X138216000Y-78700000D01*
X138216000Y-78700000D02*
X138684000Y-78232000D01*
X138684000Y-78232000D02*
X138684000Y-73152000D01*
X138232000Y-72700000D02*
X136418000Y-72700000D01*
X138684000Y-73152000D02*
X138232000Y-72700000D01*
%TO.N,SCL*%
X150118000Y-82700000D02*
X151618000Y-82700000D01*
X149250400Y-83567600D02*
X150118000Y-82700000D01*
X149250400Y-87985600D02*
X149250400Y-83567600D01*
X156972000Y-95707200D02*
X149250400Y-87985600D01*
X160172400Y-95707200D02*
X156972000Y-95707200D01*
X162306000Y-97840800D02*
X160172400Y-95707200D01*
X162306000Y-107696000D02*
X162306000Y-97840800D01*
X160571610Y-109430390D02*
X162306000Y-107696000D01*
X133852800Y-109430390D02*
X160571610Y-109430390D01*
X129276000Y-104853590D02*
X133852800Y-109430390D01*
X129276000Y-102950000D02*
X129276000Y-104853590D01*
%TO.N,SDS_RX*%
X148630000Y-78700000D02*
X151618000Y-78700000D01*
X147336010Y-78700000D02*
X148630000Y-78700000D01*
X146804810Y-79231200D02*
X147336010Y-78700000D01*
X146804810Y-89018400D02*
X146804810Y-79231200D01*
X154177999Y-96391589D02*
X146804810Y-89018400D01*
X154178000Y-102995590D02*
X154177999Y-96391589D01*
X155576410Y-104394000D02*
X154178000Y-102995590D01*
X159004000Y-104394000D02*
X155576410Y-104394000D01*
%TO.N,SDS_TX*%
X157480000Y-106934000D02*
X159004000Y-106934000D01*
X153727990Y-103181990D02*
X157480000Y-106934000D01*
X153727990Y-96577990D02*
X153727990Y-103181990D01*
X146354800Y-89204800D02*
X153727990Y-96577990D01*
X148699600Y-76700000D02*
X146354800Y-79044800D01*
X146354800Y-79044800D02*
X146354800Y-89204800D01*
X151618000Y-76700000D02*
X148699600Y-76700000D01*
%TD*%
%TO.N,GND*%
X134495000Y-70362000D02*
X127059973Y-70362000D01*
X126546323Y-69848351D01*
X126522580Y-69819420D01*
X126407160Y-69724697D01*
X126275477Y-69654311D01*
X126132594Y-69610968D01*
X126021232Y-69600000D01*
X125984000Y-69596333D01*
X125946768Y-69600000D01*
X122618735Y-69600000D01*
X122641000Y-69488063D01*
X122641000Y-69195937D01*
X122584010Y-68909425D01*
X122472218Y-68639536D01*
X122309922Y-68396642D01*
X122103358Y-68190078D01*
X121926641Y-68072000D01*
X122103358Y-67953922D01*
X122309922Y-67747358D01*
X122357025Y-67676862D01*
X127853000Y-67676862D01*
X127853000Y-67959138D01*
X127908069Y-68235991D01*
X128016092Y-68496780D01*
X128172916Y-68731484D01*
X128372516Y-68931084D01*
X128607220Y-69087908D01*
X128868009Y-69195931D01*
X129144862Y-69251000D01*
X129427138Y-69251000D01*
X129703991Y-69195931D01*
X129964780Y-69087908D01*
X130199484Y-68931084D01*
X130399084Y-68731484D01*
X130555908Y-68496780D01*
X130663931Y-68235991D01*
X130719000Y-67959138D01*
X130719000Y-67676862D01*
X130663931Y-67400009D01*
X130555908Y-67139220D01*
X130399084Y-66904516D01*
X130199484Y-66704916D01*
X129964780Y-66548092D01*
X129703991Y-66440069D01*
X129427138Y-66385000D01*
X129144862Y-66385000D01*
X128868009Y-66440069D01*
X128607220Y-66548092D01*
X128372516Y-66704916D01*
X128172916Y-66904516D01*
X128016092Y-67139220D01*
X127908069Y-67400009D01*
X127853000Y-67676862D01*
X122357025Y-67676862D01*
X122472218Y-67504464D01*
X122584010Y-67234575D01*
X122641000Y-66948063D01*
X122641000Y-66655937D01*
X122584010Y-66369425D01*
X122472218Y-66099536D01*
X122309922Y-65856642D01*
X122103358Y-65650078D01*
X121860464Y-65487782D01*
X121590575Y-65375990D01*
X121304063Y-65319000D01*
X121011937Y-65319000D01*
X120725425Y-65375990D01*
X120455536Y-65487782D01*
X120212642Y-65650078D01*
X120006078Y-65856642D01*
X119843782Y-66099536D01*
X119731990Y-66369425D01*
X119675000Y-66655937D01*
X119675000Y-66948063D01*
X119731990Y-67234575D01*
X119843782Y-67504464D01*
X120006078Y-67747358D01*
X120212642Y-67953922D01*
X120389359Y-68072000D01*
X120212642Y-68190078D01*
X120006078Y-68396642D01*
X119843782Y-68639536D01*
X119731990Y-68909425D01*
X119675000Y-69195937D01*
X119675000Y-69488063D01*
X119731990Y-69774575D01*
X119843782Y-70044464D01*
X120006078Y-70287358D01*
X120212642Y-70493922D01*
X120389359Y-70612000D01*
X120212642Y-70730078D01*
X120006078Y-70936642D01*
X119843782Y-71179536D01*
X119731990Y-71449425D01*
X119675000Y-71735937D01*
X119675000Y-72028063D01*
X119731990Y-72314575D01*
X119843782Y-72584464D01*
X120006078Y-72827358D01*
X120212642Y-73033922D01*
X120448487Y-73191508D01*
X120308000Y-73191166D01*
X120233703Y-73198484D01*
X120162261Y-73220155D01*
X120096420Y-73255348D01*
X120038710Y-73302710D01*
X119991348Y-73360420D01*
X119956155Y-73426261D01*
X119934484Y-73497703D01*
X119927166Y-73572000D01*
X119929000Y-74325250D01*
X120023750Y-74420000D01*
X121156000Y-74420000D01*
X121156000Y-74400000D01*
X121160000Y-74400000D01*
X121160000Y-74420000D01*
X122292250Y-74420000D01*
X122387000Y-74325250D01*
X122388834Y-73572000D01*
X122381516Y-73497703D01*
X122359845Y-73426261D01*
X122324652Y-73360420D01*
X122277290Y-73302710D01*
X122219580Y-73255348D01*
X122153739Y-73220155D01*
X122082297Y-73198484D01*
X122008000Y-73191166D01*
X121867513Y-73191508D01*
X122103358Y-73033922D01*
X122309922Y-72827358D01*
X122472218Y-72584464D01*
X122584010Y-72314575D01*
X122641000Y-72028063D01*
X122641000Y-71735937D01*
X122607200Y-71566010D01*
X125483627Y-71566010D01*
X125997285Y-72079669D01*
X126021020Y-72108590D01*
X126136440Y-72203313D01*
X126268123Y-72273699D01*
X126411006Y-72317042D01*
X126559600Y-72331677D01*
X126596832Y-72328010D01*
X134531938Y-72328010D01*
X134531938Y-73200000D01*
X134544160Y-73324090D01*
X134580355Y-73443410D01*
X134639134Y-73553377D01*
X134718236Y-73649764D01*
X134779449Y-73700000D01*
X134718236Y-73750236D01*
X134639134Y-73846623D01*
X134580355Y-73956590D01*
X134544160Y-74075910D01*
X134531938Y-74200000D01*
X134531938Y-75200000D01*
X134544160Y-75324090D01*
X134580355Y-75443410D01*
X134639134Y-75553377D01*
X134718236Y-75649764D01*
X134779449Y-75700000D01*
X134718236Y-75750236D01*
X134639134Y-75846623D01*
X134588154Y-75942000D01*
X130601232Y-75942000D01*
X130564000Y-75938333D01*
X130526768Y-75942000D01*
X130415406Y-75952968D01*
X130272523Y-75996311D01*
X130140840Y-76066697D01*
X130025420Y-76161420D01*
X130001681Y-76190346D01*
X129610546Y-76581482D01*
X129427138Y-76545000D01*
X129144862Y-76545000D01*
X128868009Y-76600069D01*
X128607220Y-76708092D01*
X128372516Y-76864916D01*
X128172916Y-77064516D01*
X128016092Y-77299220D01*
X127908069Y-77560009D01*
X127853000Y-77836862D01*
X127853000Y-78119138D01*
X127908069Y-78395991D01*
X128016092Y-78656780D01*
X128172916Y-78891484D01*
X128372516Y-79091084D01*
X128607220Y-79247908D01*
X128868009Y-79355931D01*
X129144862Y-79411000D01*
X129427138Y-79411000D01*
X129703991Y-79355931D01*
X129964780Y-79247908D01*
X130199484Y-79091084D01*
X130399084Y-78891484D01*
X130555908Y-78656780D01*
X130663931Y-78395991D01*
X130719000Y-78119138D01*
X130719000Y-77836862D01*
X130682518Y-77653454D01*
X130877973Y-77458000D01*
X134588154Y-77458000D01*
X134639134Y-77553377D01*
X134718236Y-77649764D01*
X134779449Y-77700000D01*
X134718236Y-77750236D01*
X134639134Y-77846623D01*
X134588154Y-77942000D01*
X132919232Y-77942000D01*
X132882000Y-77938333D01*
X132844768Y-77942000D01*
X132733406Y-77952968D01*
X132590523Y-77996311D01*
X132458840Y-78066697D01*
X132343420Y-78161420D01*
X132319681Y-78190346D01*
X129610546Y-80899482D01*
X129427138Y-80863000D01*
X129144862Y-80863000D01*
X128868009Y-80918069D01*
X128607220Y-81026092D01*
X128372516Y-81182916D01*
X128172916Y-81382516D01*
X128016092Y-81617220D01*
X127908069Y-81878009D01*
X127853000Y-82154862D01*
X127853000Y-82437138D01*
X127908069Y-82713991D01*
X128016092Y-82974780D01*
X128172916Y-83209484D01*
X128372516Y-83409084D01*
X128607220Y-83565908D01*
X128868009Y-83673931D01*
X129144862Y-83729000D01*
X129427138Y-83729000D01*
X129703991Y-83673931D01*
X129964780Y-83565908D01*
X130199484Y-83409084D01*
X130399084Y-83209484D01*
X130555908Y-82974780D01*
X130663931Y-82713991D01*
X130719000Y-82437138D01*
X130719000Y-82154862D01*
X130682518Y-81971454D01*
X133195973Y-79458000D01*
X134588154Y-79458000D01*
X134639134Y-79553377D01*
X134718236Y-79649764D01*
X134779449Y-79700000D01*
X134718236Y-79750236D01*
X134639134Y-79846623D01*
X134580355Y-79956590D01*
X134544160Y-80075910D01*
X134531938Y-80200000D01*
X134531938Y-81200000D01*
X134544160Y-81324090D01*
X134580355Y-81443410D01*
X134639134Y-81553377D01*
X134718236Y-81649764D01*
X134779449Y-81700000D01*
X134718236Y-81750236D01*
X134639134Y-81846623D01*
X134580355Y-81956590D01*
X134544160Y-82075910D01*
X134531938Y-82200000D01*
X134531938Y-83200000D01*
X134544160Y-83324090D01*
X134580355Y-83443410D01*
X134639134Y-83553377D01*
X134718236Y-83649764D01*
X134779449Y-83700000D01*
X134718236Y-83750236D01*
X134639134Y-83846623D01*
X134580355Y-83956590D01*
X134544160Y-84075910D01*
X134531938Y-84200000D01*
X134531938Y-85200000D01*
X134544160Y-85324090D01*
X134580355Y-85443410D01*
X134639134Y-85553377D01*
X134718236Y-85649764D01*
X134779449Y-85700000D01*
X134718236Y-85750236D01*
X134639134Y-85846623D01*
X134588630Y-85941109D01*
X134549058Y-85962260D01*
X134414604Y-86072604D01*
X134386956Y-86106293D01*
X129463098Y-91030153D01*
X129427138Y-91023000D01*
X129144862Y-91023000D01*
X128868009Y-91078069D01*
X128607220Y-91186092D01*
X128372516Y-91342916D01*
X128172916Y-91542516D01*
X128016092Y-91777220D01*
X127908069Y-92038009D01*
X127853000Y-92314862D01*
X127853000Y-92597138D01*
X127908069Y-92873991D01*
X128016092Y-93134780D01*
X128172916Y-93369484D01*
X128372516Y-93569084D01*
X128403001Y-93589453D01*
X128403000Y-96222634D01*
X128398729Y-96266000D01*
X128403000Y-96309366D01*
X128403000Y-96309372D01*
X128407431Y-96354357D01*
X128414822Y-96429396D01*
X128415777Y-96439097D01*
X128466268Y-96605543D01*
X128548260Y-96758941D01*
X128658604Y-96893396D01*
X128692304Y-96921053D01*
X131043954Y-99272705D01*
X131071604Y-99306396D01*
X131206058Y-99416740D01*
X131359456Y-99498732D01*
X131475410Y-99533906D01*
X131525901Y-99549223D01*
X131544127Y-99551018D01*
X131655627Y-99562000D01*
X131655633Y-99562000D01*
X131698999Y-99566271D01*
X131742365Y-99562000D01*
X136540251Y-99562000D01*
X138655153Y-101676902D01*
X138648000Y-101712862D01*
X138648000Y-101995138D01*
X138703069Y-102271991D01*
X138811092Y-102532780D01*
X138967916Y-102767484D01*
X139167516Y-102967084D01*
X139402220Y-103123908D01*
X139663009Y-103231931D01*
X139690904Y-103237480D01*
X139669079Y-103243214D01*
X139460291Y-103344920D01*
X139386268Y-103394380D01*
X139311701Y-103581873D01*
X140081000Y-104351172D01*
X140850299Y-103581873D01*
X140775732Y-103394380D01*
X140575171Y-103277284D01*
X140463905Y-103238910D01*
X140498991Y-103231931D01*
X140759780Y-103123908D01*
X140788172Y-103104937D01*
X149647000Y-103104937D01*
X149647000Y-103397063D01*
X149703990Y-103683575D01*
X149815782Y-103953464D01*
X149978078Y-104196358D01*
X150184642Y-104402922D01*
X150361359Y-104521000D01*
X150184642Y-104639078D01*
X149978078Y-104845642D01*
X149815782Y-105088536D01*
X149703990Y-105358425D01*
X149647000Y-105644937D01*
X149647000Y-105937063D01*
X149703990Y-106223575D01*
X149815782Y-106493464D01*
X149978078Y-106736358D01*
X150184642Y-106942922D01*
X150427536Y-107105218D01*
X150697425Y-107217010D01*
X150983937Y-107274000D01*
X151276063Y-107274000D01*
X151562575Y-107217010D01*
X151832464Y-107105218D01*
X152075358Y-106942922D01*
X152281922Y-106736358D01*
X152444218Y-106493464D01*
X152556010Y-106223575D01*
X152613000Y-105937063D01*
X152613000Y-105644937D01*
X152556010Y-105358425D01*
X152444218Y-105088536D01*
X152281922Y-104845642D01*
X152075358Y-104639078D01*
X151898641Y-104521000D01*
X152075358Y-104402922D01*
X152281922Y-104196358D01*
X152444218Y-103953464D01*
X152556010Y-103683575D01*
X152613000Y-103397063D01*
X152613000Y-103104937D01*
X152556010Y-102818425D01*
X152444218Y-102548536D01*
X152281922Y-102305642D01*
X152075358Y-102099078D01*
X151839513Y-101941492D01*
X151980000Y-101941834D01*
X152054297Y-101934516D01*
X152125739Y-101912845D01*
X152191580Y-101877652D01*
X152249290Y-101830290D01*
X152296652Y-101772580D01*
X152331845Y-101706739D01*
X152353516Y-101635297D01*
X152360834Y-101561000D01*
X152359000Y-100807750D01*
X152264250Y-100713000D01*
X151132000Y-100713000D01*
X151132000Y-100733000D01*
X151128000Y-100733000D01*
X151128000Y-100713000D01*
X149995750Y-100713000D01*
X149901000Y-100807750D01*
X149899166Y-101561000D01*
X149906484Y-101635297D01*
X149928155Y-101706739D01*
X149963348Y-101772580D01*
X150010710Y-101830290D01*
X150068420Y-101877652D01*
X150134261Y-101912845D01*
X150205703Y-101934516D01*
X150280000Y-101941834D01*
X150420487Y-101941492D01*
X150184642Y-102099078D01*
X149978078Y-102305642D01*
X149815782Y-102548536D01*
X149703990Y-102818425D01*
X149647000Y-103104937D01*
X140788172Y-103104937D01*
X140994484Y-102967084D01*
X141194084Y-102767484D01*
X141350908Y-102532780D01*
X141458931Y-102271991D01*
X141514000Y-101995138D01*
X141514000Y-101712862D01*
X141458931Y-101436009D01*
X141350908Y-101175220D01*
X141194084Y-100940516D01*
X140994484Y-100740916D01*
X140759780Y-100584092D01*
X140498991Y-100476069D01*
X140222138Y-100421000D01*
X139939862Y-100421000D01*
X139903902Y-100428153D01*
X139336749Y-99861000D01*
X149899166Y-99861000D01*
X149901000Y-100614250D01*
X149995750Y-100709000D01*
X151128000Y-100709000D01*
X151128000Y-99576750D01*
X151132000Y-99576750D01*
X151132000Y-100709000D01*
X152264250Y-100709000D01*
X152359000Y-100614250D01*
X152360834Y-99861000D01*
X152353516Y-99786703D01*
X152331845Y-99715261D01*
X152296652Y-99649420D01*
X152249290Y-99591710D01*
X152191580Y-99544348D01*
X152125739Y-99509155D01*
X152054297Y-99487484D01*
X151980000Y-99480166D01*
X151226750Y-99482000D01*
X151132000Y-99576750D01*
X151128000Y-99576750D01*
X151033250Y-99482000D01*
X150280000Y-99480166D01*
X150205703Y-99487484D01*
X150134261Y-99509155D01*
X150068420Y-99544348D01*
X150010710Y-99591710D01*
X149963348Y-99649420D01*
X149928155Y-99715261D01*
X149906484Y-99786703D01*
X149899166Y-99861000D01*
X139336749Y-99861000D01*
X137561053Y-98085304D01*
X137533396Y-98051604D01*
X137398942Y-97941260D01*
X137245544Y-97859268D01*
X137079098Y-97808777D01*
X136949373Y-97796000D01*
X136949366Y-97796000D01*
X136906000Y-97791729D01*
X136862634Y-97796000D01*
X132064751Y-97796000D01*
X130169000Y-95900251D01*
X130169000Y-93589453D01*
X130199484Y-93569084D01*
X130399084Y-93369484D01*
X130555908Y-93134780D01*
X130663931Y-92873991D01*
X130719000Y-92597138D01*
X130719000Y-92314862D01*
X130711847Y-92278902D01*
X135155882Y-87834868D01*
X135168000Y-87836062D01*
X137668000Y-87836062D01*
X137792090Y-87823840D01*
X137911410Y-87787645D01*
X138021377Y-87728866D01*
X138117764Y-87649764D01*
X138196866Y-87553377D01*
X138255645Y-87443410D01*
X138291840Y-87324090D01*
X138304062Y-87200000D01*
X138304062Y-86200000D01*
X138291840Y-86075910D01*
X138255645Y-85956590D01*
X138196866Y-85846623D01*
X138117764Y-85750236D01*
X138056551Y-85700000D01*
X138117764Y-85649764D01*
X138196866Y-85553377D01*
X138255645Y-85443410D01*
X138291840Y-85324090D01*
X138304062Y-85200000D01*
X138304062Y-84200000D01*
X138291840Y-84075910D01*
X138255645Y-83956590D01*
X138196866Y-83846623D01*
X138117764Y-83750236D01*
X138056551Y-83700000D01*
X138117764Y-83649764D01*
X138196866Y-83553377D01*
X138255645Y-83443410D01*
X138291840Y-83324090D01*
X138304062Y-83200000D01*
X138304062Y-82200000D01*
X138291840Y-82075910D01*
X138255645Y-81956590D01*
X138196866Y-81846623D01*
X138117764Y-81750236D01*
X138056551Y-81700000D01*
X138117764Y-81649764D01*
X138196866Y-81553377D01*
X138255645Y-81443410D01*
X138291840Y-81324090D01*
X138304062Y-81200000D01*
X138304062Y-80200000D01*
X138291840Y-80075910D01*
X138255645Y-79956590D01*
X138196866Y-79846623D01*
X138117764Y-79750236D01*
X138056551Y-79700000D01*
X138117764Y-79649764D01*
X138196866Y-79553377D01*
X138247547Y-79458560D01*
X138253232Y-79458000D01*
X138364594Y-79447032D01*
X138507477Y-79403689D01*
X138639160Y-79333303D01*
X138754580Y-79238580D01*
X138778324Y-79209648D01*
X139193649Y-78794323D01*
X139222580Y-78770580D01*
X139317303Y-78655160D01*
X139387689Y-78523477D01*
X139431032Y-78380594D01*
X139442000Y-78269232D01*
X139442000Y-78269231D01*
X139445667Y-78232000D01*
X139442000Y-78194768D01*
X139442000Y-73332384D01*
X139771275Y-73661659D01*
X139795010Y-73690580D01*
X139910430Y-73785303D01*
X140042113Y-73855689D01*
X140184996Y-73899032D01*
X140333590Y-73913667D01*
X140370822Y-73910000D01*
X148530028Y-73910000D01*
X149731938Y-75111912D01*
X149731938Y-75200000D01*
X149744160Y-75324090D01*
X149780355Y-75443410D01*
X149839134Y-75553377D01*
X149918236Y-75649764D01*
X149979449Y-75700000D01*
X149918236Y-75750236D01*
X149839134Y-75846623D01*
X149788154Y-75942000D01*
X148736832Y-75942000D01*
X148699600Y-75938333D01*
X148662368Y-75942000D01*
X148551006Y-75952968D01*
X148408123Y-75996311D01*
X148276440Y-76066697D01*
X148161020Y-76161420D01*
X148137281Y-76190346D01*
X145845152Y-78482476D01*
X145816220Y-78506220D01*
X145721497Y-78621641D01*
X145651111Y-78753324D01*
X145634513Y-78808041D01*
X145607768Y-78896207D01*
X145593133Y-79044800D01*
X145596800Y-79082032D01*
X145596801Y-89167558D01*
X145593133Y-89204800D01*
X145607768Y-89353393D01*
X145634514Y-89441560D01*
X145651112Y-89496277D01*
X145721498Y-89627960D01*
X145816221Y-89743380D01*
X145845147Y-89767119D01*
X152969990Y-96891964D01*
X152969991Y-103144748D01*
X152966323Y-103181990D01*
X152980958Y-103330583D01*
X153024302Y-103473467D01*
X153088651Y-103593855D01*
X153094688Y-103605150D01*
X153189411Y-103720570D01*
X153218337Y-103744309D01*
X156917685Y-107443659D01*
X156941420Y-107472580D01*
X157056840Y-107567303D01*
X157188523Y-107637689D01*
X157331406Y-107681032D01*
X157442768Y-107692000D01*
X157442777Y-107692000D01*
X157479999Y-107695666D01*
X157517221Y-107692000D01*
X157726890Y-107692000D01*
X157852078Y-107879358D01*
X158058642Y-108085922D01*
X158301536Y-108248218D01*
X158571425Y-108360010D01*
X158857937Y-108417000D01*
X159150063Y-108417000D01*
X159436575Y-108360010D01*
X159706464Y-108248218D01*
X159949358Y-108085922D01*
X160155922Y-107879358D01*
X160318218Y-107636464D01*
X160430010Y-107366575D01*
X160487000Y-107080063D01*
X160487000Y-106787937D01*
X160430010Y-106501425D01*
X160318218Y-106231536D01*
X160155922Y-105988642D01*
X159949358Y-105782078D01*
X159772641Y-105664000D01*
X159949358Y-105545922D01*
X160155922Y-105339358D01*
X160318218Y-105096464D01*
X160430010Y-104826575D01*
X160487000Y-104540063D01*
X160487000Y-104247937D01*
X160430010Y-103961425D01*
X160318218Y-103691536D01*
X160155922Y-103448642D01*
X159949358Y-103242078D01*
X159706464Y-103079782D01*
X159476254Y-102984426D01*
X159647855Y-102900848D01*
X159839713Y-102755123D01*
X159999455Y-102574769D01*
X160120943Y-102366716D01*
X160199507Y-102138960D01*
X160217554Y-102048233D01*
X160138248Y-101856000D01*
X159006000Y-101856000D01*
X159006000Y-101876000D01*
X159002000Y-101876000D01*
X159002000Y-101856000D01*
X157869752Y-101856000D01*
X157790446Y-102048233D01*
X157808493Y-102138960D01*
X157887057Y-102366716D01*
X158008545Y-102574769D01*
X158168287Y-102755123D01*
X158360145Y-102900848D01*
X158531746Y-102984426D01*
X158301536Y-103079782D01*
X158058642Y-103242078D01*
X157852078Y-103448642D01*
X157726890Y-103636000D01*
X155890384Y-103636000D01*
X154936000Y-102681618D01*
X154935999Y-98464000D01*
X157517938Y-98464000D01*
X157517938Y-100164000D01*
X157530160Y-100288090D01*
X157566355Y-100407410D01*
X157625134Y-100517377D01*
X157704236Y-100613764D01*
X157800623Y-100692866D01*
X157910590Y-100751645D01*
X158029910Y-100787840D01*
X158154000Y-100800062D01*
X158374702Y-100800062D01*
X158360145Y-100807152D01*
X158168287Y-100952877D01*
X158008545Y-101133231D01*
X157887057Y-101341284D01*
X157808493Y-101569040D01*
X157790446Y-101659767D01*
X157869752Y-101852000D01*
X159002000Y-101852000D01*
X159002000Y-101832000D01*
X159006000Y-101832000D01*
X159006000Y-101852000D01*
X160138248Y-101852000D01*
X160217554Y-101659767D01*
X160199507Y-101569040D01*
X160120943Y-101341284D01*
X159999455Y-101133231D01*
X159839713Y-100952877D01*
X159647855Y-100807152D01*
X159633298Y-100800062D01*
X159854000Y-100800062D01*
X159978090Y-100787840D01*
X160097410Y-100751645D01*
X160207377Y-100692866D01*
X160303764Y-100613764D01*
X160382866Y-100517377D01*
X160441645Y-100407410D01*
X160477840Y-100288090D01*
X160490062Y-100164000D01*
X160490062Y-98464000D01*
X160477840Y-98339910D01*
X160441645Y-98220590D01*
X160382866Y-98110623D01*
X160303764Y-98014236D01*
X160207377Y-97935134D01*
X160097410Y-97876355D01*
X159978090Y-97840160D01*
X159854000Y-97827938D01*
X158154000Y-97827938D01*
X158029910Y-97840160D01*
X157910590Y-97876355D01*
X157800623Y-97935134D01*
X157704236Y-98014236D01*
X157625134Y-98110623D01*
X157566355Y-98220590D01*
X157530160Y-98339910D01*
X157517938Y-98464000D01*
X154935999Y-98464000D01*
X154935998Y-96428831D01*
X154939666Y-96391589D01*
X154925031Y-96242995D01*
X154881687Y-96100111D01*
X154811302Y-95968429D01*
X154740313Y-95881929D01*
X154740308Y-95881924D01*
X154716578Y-95853009D01*
X154687663Y-95829279D01*
X147562810Y-88704428D01*
X147562810Y-79545173D01*
X147649983Y-79458000D01*
X149788154Y-79458000D01*
X149839134Y-79553377D01*
X149918236Y-79649764D01*
X149979449Y-79700000D01*
X149918236Y-79750236D01*
X149839134Y-79846623D01*
X149780355Y-79956590D01*
X149744160Y-80075910D01*
X149731938Y-80200000D01*
X149731938Y-81200000D01*
X149744160Y-81324090D01*
X149780355Y-81443410D01*
X149839134Y-81553377D01*
X149918236Y-81649764D01*
X149979449Y-81700000D01*
X149918236Y-81750236D01*
X149839134Y-81846623D01*
X149780355Y-81956590D01*
X149757040Y-82033451D01*
X149694840Y-82066697D01*
X149579420Y-82161420D01*
X149555685Y-82190341D01*
X148740746Y-83005281D01*
X148711821Y-83029020D01*
X148653772Y-83099753D01*
X148617097Y-83144441D01*
X148546712Y-83276123D01*
X148503368Y-83419007D01*
X148488733Y-83567600D01*
X148492401Y-83604842D01*
X148492400Y-87948368D01*
X148488733Y-87985600D01*
X148492400Y-88022831D01*
X148503368Y-88134193D01*
X148546711Y-88277076D01*
X148617097Y-88408759D01*
X148711820Y-88524180D01*
X148740752Y-88547924D01*
X156409685Y-96216859D01*
X156433420Y-96245780D01*
X156548840Y-96340503D01*
X156680523Y-96410889D01*
X156823406Y-96454232D01*
X156934768Y-96465200D01*
X156934777Y-96465200D01*
X156971999Y-96468866D01*
X157009221Y-96465200D01*
X159858428Y-96465200D01*
X161548001Y-98154774D01*
X161548000Y-107382026D01*
X160257638Y-108672390D01*
X134166774Y-108672390D01*
X130620510Y-105126127D01*
X139311701Y-105126127D01*
X139386268Y-105313620D01*
X139586829Y-105430716D01*
X139806381Y-105506436D01*
X140036487Y-105537867D01*
X140268303Y-105523804D01*
X140492921Y-105464786D01*
X140701709Y-105363080D01*
X140775732Y-105313620D01*
X140850299Y-105126127D01*
X140081000Y-104356828D01*
X139311701Y-105126127D01*
X130620510Y-105126127D01*
X130034000Y-104539618D01*
X130034000Y-104227110D01*
X130221358Y-104101922D01*
X130427922Y-103895358D01*
X130590218Y-103652464D01*
X130685574Y-103422254D01*
X130769152Y-103593855D01*
X130914877Y-103785713D01*
X131095231Y-103945455D01*
X131303284Y-104066943D01*
X131531040Y-104145507D01*
X131621767Y-104163554D01*
X131814000Y-104084248D01*
X131814000Y-102952000D01*
X131794000Y-102952000D01*
X131794000Y-102948000D01*
X131814000Y-102948000D01*
X131814000Y-101815752D01*
X131818000Y-101815752D01*
X131818000Y-102948000D01*
X131838000Y-102948000D01*
X131838000Y-102952000D01*
X131818000Y-102952000D01*
X131818000Y-104084248D01*
X132010233Y-104163554D01*
X132100960Y-104145507D01*
X132328716Y-104066943D01*
X132536769Y-103945455D01*
X132717123Y-103785713D01*
X132862848Y-103593855D01*
X132869938Y-103579298D01*
X132869938Y-103800000D01*
X132882160Y-103924090D01*
X132918355Y-104043410D01*
X132977134Y-104153377D01*
X133056236Y-104249764D01*
X133152623Y-104328866D01*
X133262590Y-104387645D01*
X133381910Y-104423840D01*
X133506000Y-104436062D01*
X135206000Y-104436062D01*
X135330090Y-104423840D01*
X135449410Y-104387645D01*
X135559377Y-104328866D01*
X135582990Y-104309487D01*
X138897133Y-104309487D01*
X138911196Y-104541303D01*
X138970214Y-104765921D01*
X139071920Y-104974709D01*
X139121380Y-105048732D01*
X139308873Y-105123299D01*
X140078172Y-104354000D01*
X140083828Y-104354000D01*
X140853127Y-105123299D01*
X141040620Y-105048732D01*
X141157716Y-104848171D01*
X141233436Y-104628619D01*
X141264867Y-104398513D01*
X141250804Y-104166697D01*
X141191786Y-103942079D01*
X141090080Y-103733291D01*
X141040620Y-103659268D01*
X140853127Y-103584701D01*
X140083828Y-104354000D01*
X140078172Y-104354000D01*
X139308873Y-103584701D01*
X139121380Y-103659268D01*
X139004284Y-103859829D01*
X138928564Y-104079381D01*
X138897133Y-104309487D01*
X135582990Y-104309487D01*
X135655764Y-104249764D01*
X135734866Y-104153377D01*
X135793645Y-104043410D01*
X135829840Y-103924090D01*
X135842062Y-103800000D01*
X135842062Y-102100000D01*
X135829840Y-101975910D01*
X135793645Y-101856590D01*
X135734866Y-101746623D01*
X135655764Y-101650236D01*
X135559377Y-101571134D01*
X135449410Y-101512355D01*
X135330090Y-101476160D01*
X135206000Y-101463938D01*
X133506000Y-101463938D01*
X133381910Y-101476160D01*
X133262590Y-101512355D01*
X133152623Y-101571134D01*
X133056236Y-101650236D01*
X132977134Y-101746623D01*
X132918355Y-101856590D01*
X132882160Y-101975910D01*
X132869938Y-102100000D01*
X132869938Y-102320702D01*
X132862848Y-102306145D01*
X132717123Y-102114287D01*
X132536769Y-101954545D01*
X132328716Y-101833057D01*
X132100960Y-101754493D01*
X132010233Y-101736446D01*
X131818000Y-101815752D01*
X131814000Y-101815752D01*
X131621767Y-101736446D01*
X131531040Y-101754493D01*
X131303284Y-101833057D01*
X131095231Y-101954545D01*
X130914877Y-102114287D01*
X130769152Y-102306145D01*
X130685574Y-102477746D01*
X130590218Y-102247536D01*
X130427922Y-102004642D01*
X130221358Y-101798078D01*
X129978464Y-101635782D01*
X129708575Y-101523990D01*
X129422063Y-101467000D01*
X129129937Y-101467000D01*
X128843425Y-101523990D01*
X128573536Y-101635782D01*
X128330642Y-101798078D01*
X128124078Y-102004642D01*
X128006000Y-102181359D01*
X127887922Y-102004642D01*
X127681358Y-101798078D01*
X127438464Y-101635782D01*
X127168575Y-101523990D01*
X126882063Y-101467000D01*
X126589937Y-101467000D01*
X126303425Y-101523990D01*
X126033536Y-101635782D01*
X125790642Y-101798078D01*
X125584078Y-102004642D01*
X125421782Y-102247536D01*
X125309990Y-102517425D01*
X125253000Y-102803937D01*
X125253000Y-103096063D01*
X125309990Y-103382575D01*
X125421782Y-103652464D01*
X125584078Y-103895358D01*
X125790642Y-104101922D01*
X126033536Y-104264218D01*
X126303425Y-104376010D01*
X126589937Y-104433000D01*
X126882063Y-104433000D01*
X127103068Y-104389040D01*
X133104085Y-110390059D01*
X133127820Y-110418980D01*
X133243240Y-110513703D01*
X133374923Y-110584089D01*
X133517806Y-110627432D01*
X133666400Y-110642067D01*
X133703632Y-110638400D01*
X146650428Y-110638400D01*
X150963938Y-114951912D01*
X150963938Y-116116000D01*
X150976160Y-116240090D01*
X151012355Y-116359410D01*
X151071134Y-116469377D01*
X151150236Y-116565764D01*
X151246623Y-116644866D01*
X151356590Y-116703645D01*
X151475910Y-116739840D01*
X151600000Y-116752062D01*
X153200000Y-116752062D01*
X153324090Y-116739840D01*
X153443410Y-116703645D01*
X153553377Y-116644866D01*
X153649764Y-116565764D01*
X153728866Y-116469377D01*
X153787645Y-116359410D01*
X153823840Y-116240090D01*
X153836062Y-116116000D01*
X153836062Y-115502411D01*
X158855830Y-115502411D01*
X158873111Y-115589287D01*
X158948464Y-115807783D01*
X159064995Y-116007380D01*
X159218227Y-116180408D01*
X159402271Y-116320217D01*
X159610053Y-116421434D01*
X159833589Y-116480170D01*
X160018000Y-116400248D01*
X160018000Y-115318000D01*
X160022000Y-115318000D01*
X160022000Y-116400248D01*
X160206411Y-116480170D01*
X160429947Y-116421434D01*
X160637729Y-116320217D01*
X160821773Y-116180408D01*
X160975005Y-116007380D01*
X161091536Y-115807783D01*
X161166889Y-115589287D01*
X161184170Y-115502411D01*
X161104248Y-115318000D01*
X160022000Y-115318000D01*
X160018000Y-115318000D01*
X158935752Y-115318000D01*
X158855830Y-115502411D01*
X153836062Y-115502411D01*
X153836062Y-115129589D01*
X158855830Y-115129589D01*
X158935752Y-115314000D01*
X160018000Y-115314000D01*
X160018000Y-114231752D01*
X160022000Y-114231752D01*
X160022000Y-115314000D01*
X161104248Y-115314000D01*
X161184170Y-115129589D01*
X161166889Y-115042713D01*
X161091536Y-114824217D01*
X160975005Y-114624620D01*
X160821773Y-114451592D01*
X160637729Y-114311783D01*
X160429947Y-114210566D01*
X160206411Y-114151830D01*
X160022000Y-114231752D01*
X160018000Y-114231752D01*
X159833589Y-114151830D01*
X159610053Y-114210566D01*
X159402271Y-114311783D01*
X159218227Y-114451592D01*
X159064995Y-114624620D01*
X158948464Y-114824217D01*
X158873111Y-115042713D01*
X158855830Y-115129589D01*
X153836062Y-115129589D01*
X153836062Y-114516000D01*
X153823840Y-114391910D01*
X153787645Y-114272590D01*
X153728866Y-114162623D01*
X153649764Y-114066236D01*
X153553377Y-113987134D01*
X153443410Y-113928355D01*
X153324090Y-113892160D01*
X153200000Y-113879938D01*
X152035912Y-113879938D01*
X148344362Y-110188390D01*
X160534378Y-110188390D01*
X160571610Y-110192057D01*
X160608842Y-110188390D01*
X160720204Y-110177422D01*
X160863087Y-110134079D01*
X160994770Y-110063693D01*
X161110190Y-109968970D01*
X161133933Y-109940039D01*
X162815660Y-108258314D01*
X162844580Y-108234580D01*
X162939303Y-108119160D01*
X163009689Y-107987477D01*
X163053032Y-107844594D01*
X163064000Y-107733232D01*
X163064000Y-107733231D01*
X163067667Y-107696000D01*
X163064000Y-107658768D01*
X163064000Y-97878031D01*
X163067667Y-97840799D01*
X163053032Y-97692206D01*
X163009689Y-97549323D01*
X162939303Y-97417640D01*
X162844580Y-97302220D01*
X162815654Y-97278481D01*
X160734724Y-95197552D01*
X160710980Y-95168620D01*
X160595560Y-95073897D01*
X160463877Y-95003511D01*
X160320994Y-94960168D01*
X160209632Y-94949200D01*
X160172400Y-94945533D01*
X160135168Y-94949200D01*
X157285974Y-94949200D01*
X155564901Y-93228127D01*
X157980701Y-93228127D01*
X158055268Y-93415620D01*
X158255829Y-93532716D01*
X158475381Y-93608436D01*
X158705487Y-93639867D01*
X158937303Y-93625804D01*
X159161921Y-93566786D01*
X159370709Y-93465080D01*
X159444732Y-93415620D01*
X159519299Y-93228127D01*
X158750000Y-92458828D01*
X157980701Y-93228127D01*
X155564901Y-93228127D01*
X154748261Y-92411487D01*
X157566133Y-92411487D01*
X157580196Y-92643303D01*
X157639214Y-92867921D01*
X157740920Y-93076709D01*
X157790380Y-93150732D01*
X157977873Y-93225299D01*
X158747172Y-92456000D01*
X158752828Y-92456000D01*
X159522127Y-93225299D01*
X159709620Y-93150732D01*
X159826716Y-92950171D01*
X159902436Y-92730619D01*
X159933867Y-92500513D01*
X159919804Y-92268697D01*
X159860786Y-92044079D01*
X159759080Y-91835291D01*
X159709620Y-91761268D01*
X159522127Y-91686701D01*
X158752828Y-92456000D01*
X158747172Y-92456000D01*
X157977873Y-91686701D01*
X157790380Y-91761268D01*
X157673284Y-91961829D01*
X157597564Y-92181381D01*
X157566133Y-92411487D01*
X154748261Y-92411487D01*
X154020647Y-91683873D01*
X157980701Y-91683873D01*
X158750000Y-92453172D01*
X159519299Y-91683873D01*
X159444732Y-91496380D01*
X159244171Y-91379284D01*
X159024619Y-91303564D01*
X158794513Y-91272133D01*
X158562697Y-91286196D01*
X158338079Y-91345214D01*
X158129291Y-91446920D01*
X158055268Y-91496380D01*
X157980701Y-91683873D01*
X154020647Y-91683873D01*
X150008400Y-87671628D01*
X150008400Y-87320173D01*
X150016155Y-87345739D01*
X150051348Y-87411580D01*
X150098710Y-87469290D01*
X150156420Y-87516652D01*
X150222261Y-87551845D01*
X150293703Y-87573516D01*
X150368000Y-87580834D01*
X151521250Y-87579000D01*
X151616000Y-87484250D01*
X151616000Y-86702000D01*
X151620000Y-86702000D01*
X151620000Y-87484250D01*
X151714750Y-87579000D01*
X152868000Y-87580834D01*
X152942297Y-87573516D01*
X153013739Y-87551845D01*
X153079580Y-87516652D01*
X153137290Y-87469290D01*
X153184652Y-87411580D01*
X153219845Y-87345739D01*
X153241516Y-87274297D01*
X153248834Y-87200000D01*
X153247000Y-86796750D01*
X153152250Y-86702000D01*
X151620000Y-86702000D01*
X151616000Y-86702000D01*
X151596000Y-86702000D01*
X151596000Y-86698000D01*
X151616000Y-86698000D01*
X151616000Y-86678000D01*
X151620000Y-86678000D01*
X151620000Y-86698000D01*
X153152250Y-86698000D01*
X153247000Y-86603250D01*
X153248834Y-86200000D01*
X153241516Y-86125703D01*
X153219845Y-86054261D01*
X153184652Y-85988420D01*
X153137290Y-85930710D01*
X153079580Y-85883348D01*
X153013739Y-85848155D01*
X152947922Y-85828190D01*
X152992090Y-85823840D01*
X153111410Y-85787645D01*
X153221377Y-85728866D01*
X153317764Y-85649764D01*
X153396866Y-85553377D01*
X153447846Y-85458000D01*
X156308768Y-85458000D01*
X156346000Y-85461667D01*
X156383232Y-85458000D01*
X156494594Y-85447032D01*
X156637477Y-85403689D01*
X156769160Y-85333303D01*
X156884580Y-85238580D01*
X156908323Y-85209649D01*
X158425455Y-83692518D01*
X158608862Y-83729000D01*
X158891138Y-83729000D01*
X159167991Y-83673931D01*
X159428780Y-83565908D01*
X159663484Y-83409084D01*
X159863084Y-83209484D01*
X160019908Y-82974780D01*
X160127931Y-82713991D01*
X160183000Y-82437138D01*
X160183000Y-82154862D01*
X160127931Y-81878009D01*
X160019908Y-81617220D01*
X159863084Y-81382516D01*
X159663484Y-81182916D01*
X159428780Y-81026092D01*
X159167991Y-80918069D01*
X158891138Y-80863000D01*
X158608862Y-80863000D01*
X158332009Y-80918069D01*
X158071220Y-81026092D01*
X157836516Y-81182916D01*
X157636916Y-81382516D01*
X157480092Y-81617220D01*
X157372069Y-81878009D01*
X157317000Y-82154862D01*
X157317000Y-82437138D01*
X157353482Y-82620545D01*
X156032028Y-83942000D01*
X153447846Y-83942000D01*
X153396866Y-83846623D01*
X153317764Y-83750236D01*
X153256551Y-83700000D01*
X153317764Y-83649764D01*
X153396866Y-83553377D01*
X153455645Y-83443410D01*
X153491840Y-83324090D01*
X153504062Y-83200000D01*
X153504062Y-82200000D01*
X153491840Y-82075910D01*
X153455645Y-81956590D01*
X153396866Y-81846623D01*
X153317764Y-81750236D01*
X153256551Y-81700000D01*
X153317764Y-81649764D01*
X153396866Y-81553377D01*
X153447846Y-81458000D01*
X155990768Y-81458000D01*
X156028000Y-81461667D01*
X156065232Y-81458000D01*
X156176594Y-81447032D01*
X156319477Y-81403689D01*
X156451160Y-81333303D01*
X156566580Y-81238580D01*
X156590324Y-81209649D01*
X158425455Y-79374518D01*
X158608862Y-79411000D01*
X158891138Y-79411000D01*
X159167991Y-79355931D01*
X159428780Y-79247908D01*
X159663484Y-79091084D01*
X159863084Y-78891484D01*
X160019908Y-78656780D01*
X160127931Y-78395991D01*
X160183000Y-78119138D01*
X160183000Y-77836862D01*
X160127931Y-77560009D01*
X160019908Y-77299220D01*
X159863084Y-77064516D01*
X159663484Y-76864916D01*
X159428780Y-76708092D01*
X159167991Y-76600069D01*
X158891138Y-76545000D01*
X158608862Y-76545000D01*
X158332009Y-76600069D01*
X158071220Y-76708092D01*
X157836516Y-76864916D01*
X157636916Y-77064516D01*
X157480092Y-77299220D01*
X157372069Y-77560009D01*
X157317000Y-77836862D01*
X157317000Y-78119138D01*
X157353482Y-78302545D01*
X155714028Y-79942000D01*
X153447846Y-79942000D01*
X153396866Y-79846623D01*
X153317764Y-79750236D01*
X153256551Y-79700000D01*
X153317764Y-79649764D01*
X153396866Y-79553377D01*
X153455645Y-79443410D01*
X153491840Y-79324090D01*
X153504062Y-79200000D01*
X153504062Y-78200000D01*
X153491840Y-78075910D01*
X153455645Y-77956590D01*
X153396866Y-77846623D01*
X153317764Y-77750236D01*
X153256551Y-77700000D01*
X153317764Y-77649764D01*
X153396866Y-77553377D01*
X153455645Y-77443410D01*
X153491840Y-77324090D01*
X153504062Y-77200000D01*
X153504062Y-76200000D01*
X153491840Y-76075910D01*
X153455645Y-75956590D01*
X153396866Y-75846623D01*
X153317764Y-75750236D01*
X153256551Y-75700000D01*
X153317764Y-75649764D01*
X153396866Y-75553377D01*
X153455645Y-75443410D01*
X153491840Y-75324090D01*
X153504062Y-75200000D01*
X153504062Y-74200000D01*
X153491840Y-74075910D01*
X153455645Y-73956590D01*
X153396866Y-73846623D01*
X153317764Y-73750236D01*
X153256551Y-73700000D01*
X153317764Y-73649764D01*
X153396866Y-73553377D01*
X153455645Y-73443410D01*
X153491840Y-73324090D01*
X153504062Y-73200000D01*
X153504062Y-72200000D01*
X153491840Y-72075910D01*
X153467462Y-71995546D01*
X153485446Y-71985934D01*
X153504388Y-71970388D01*
X153519934Y-71951446D01*
X153531485Y-71929835D01*
X153538598Y-71906386D01*
X153541000Y-71882000D01*
X153541000Y-67676862D01*
X157317000Y-67676862D01*
X157317000Y-67959138D01*
X157372069Y-68235991D01*
X157480092Y-68496780D01*
X157636916Y-68731484D01*
X157836516Y-68931084D01*
X158071220Y-69087908D01*
X158332009Y-69195931D01*
X158608862Y-69251000D01*
X158891138Y-69251000D01*
X159167991Y-69195931D01*
X159428780Y-69087908D01*
X159663484Y-68931084D01*
X159863084Y-68731484D01*
X160019908Y-68496780D01*
X160127931Y-68235991D01*
X160183000Y-67959138D01*
X160183000Y-67676862D01*
X160127931Y-67400009D01*
X160019908Y-67139220D01*
X159863084Y-66904516D01*
X159663484Y-66704916D01*
X159474614Y-66578717D01*
X167404969Y-66578717D01*
X167404969Y-67025283D01*
X167492090Y-67463268D01*
X167662983Y-67875842D01*
X167911082Y-68247148D01*
X168226852Y-68562918D01*
X168598158Y-68811017D01*
X169010732Y-68981910D01*
X169448717Y-69069031D01*
X169895283Y-69069031D01*
X170333268Y-68981910D01*
X170745842Y-68811017D01*
X171117148Y-68562918D01*
X171432918Y-68247148D01*
X171681017Y-67875842D01*
X171851910Y-67463268D01*
X171939031Y-67025283D01*
X171939031Y-66578717D01*
X171851910Y-66140732D01*
X171681017Y-65728158D01*
X171432918Y-65356852D01*
X171117148Y-65041082D01*
X170745842Y-64792983D01*
X170333268Y-64622090D01*
X169895283Y-64534969D01*
X169448717Y-64534969D01*
X169010732Y-64622090D01*
X168598158Y-64792983D01*
X168226852Y-65041082D01*
X167911082Y-65356852D01*
X167662983Y-65728158D01*
X167492090Y-66140732D01*
X167404969Y-66578717D01*
X159474614Y-66578717D01*
X159428780Y-66548092D01*
X159167991Y-66440069D01*
X158891138Y-66385000D01*
X158608862Y-66385000D01*
X158332009Y-66440069D01*
X158071220Y-66548092D01*
X157836516Y-66704916D01*
X157636916Y-66904516D01*
X157480092Y-67139220D01*
X157372069Y-67400009D01*
X157317000Y-67676862D01*
X153541000Y-67676862D01*
X153541000Y-63904000D01*
X169639815Y-63904000D01*
X170234281Y-63962287D01*
X170775141Y-64125583D01*
X171273982Y-64390823D01*
X171711804Y-64747900D01*
X172071936Y-65183225D01*
X172340650Y-65680202D01*
X172507719Y-66219913D01*
X172566774Y-66781788D01*
X172515568Y-67344439D01*
X172356053Y-67886428D01*
X172094302Y-68387111D01*
X171740288Y-68827417D01*
X171307493Y-69190576D01*
X170812401Y-69462754D01*
X170273872Y-69633586D01*
X169692313Y-69698818D01*
X169672000Y-69696817D01*
X169543009Y-69709521D01*
X169418976Y-69747147D01*
X169304665Y-69808247D01*
X169229576Y-69869871D01*
X165165575Y-73933873D01*
X165140474Y-73954473D01*
X165119874Y-73979574D01*
X165119871Y-73979577D01*
X165058247Y-74054666D01*
X164997147Y-74168977D01*
X164959521Y-74293010D01*
X164946817Y-74422000D01*
X164950001Y-74454329D01*
X164950000Y-118722000D01*
X154210319Y-118722000D01*
X154178000Y-118718817D01*
X154145682Y-118722000D01*
X154145681Y-118722000D01*
X154049010Y-118731521D01*
X153924976Y-118769147D01*
X153810666Y-118830246D01*
X153710473Y-118912473D01*
X153628246Y-119012666D01*
X153567147Y-119126976D01*
X153529521Y-119251010D01*
X153516817Y-119380000D01*
X153520001Y-119412328D01*
X153520000Y-121887815D01*
X153461713Y-122482281D01*
X153298418Y-123023139D01*
X153033180Y-123521979D01*
X152676095Y-123959809D01*
X152240776Y-124319936D01*
X151743798Y-124588650D01*
X151204090Y-124755718D01*
X150642212Y-124814774D01*
X150079561Y-124763568D01*
X149537572Y-124604053D01*
X149036889Y-124342302D01*
X148596583Y-123988288D01*
X148233424Y-123555493D01*
X147961246Y-123060401D01*
X147790414Y-122521872D01*
X147724090Y-121930575D01*
X147724000Y-121917690D01*
X147724000Y-121696717D01*
X148354969Y-121696717D01*
X148354969Y-122143283D01*
X148442090Y-122581268D01*
X148612983Y-122993842D01*
X148861082Y-123365148D01*
X149176852Y-123680918D01*
X149548158Y-123929017D01*
X149960732Y-124099910D01*
X150398717Y-124187031D01*
X150845283Y-124187031D01*
X151283268Y-124099910D01*
X151695842Y-123929017D01*
X152067148Y-123680918D01*
X152382918Y-123365148D01*
X152631017Y-122993842D01*
X152801910Y-122581268D01*
X152889031Y-122143283D01*
X152889031Y-121696717D01*
X152801910Y-121258732D01*
X152631017Y-120846158D01*
X152382918Y-120474852D01*
X152067148Y-120159082D01*
X151695842Y-119910983D01*
X151283268Y-119740090D01*
X150845283Y-119652969D01*
X150398717Y-119652969D01*
X149960732Y-119740090D01*
X149548158Y-119910983D01*
X149176852Y-120159082D01*
X148861082Y-120474852D01*
X148612983Y-120846158D01*
X148442090Y-121258732D01*
X148354969Y-121696717D01*
X147724000Y-121696717D01*
X147724000Y-119412318D01*
X147727183Y-119380000D01*
X147714479Y-119251010D01*
X147676853Y-119126976D01*
X147615754Y-119012666D01*
X147533527Y-118912473D01*
X147433334Y-118830246D01*
X147319024Y-118769147D01*
X147194990Y-118731521D01*
X147098319Y-118722000D01*
X147066000Y-118718817D01*
X147033682Y-118722000D01*
X122578000Y-118722000D01*
X122578000Y-112883937D01*
X141011000Y-112883937D01*
X141011000Y-113176063D01*
X141067990Y-113462575D01*
X141179782Y-113732464D01*
X141342078Y-113975358D01*
X141548642Y-114181922D01*
X141791536Y-114344218D01*
X142061425Y-114456010D01*
X142347937Y-114513000D01*
X142640063Y-114513000D01*
X142926575Y-114456010D01*
X143196464Y-114344218D01*
X143439358Y-114181922D01*
X143645922Y-113975358D01*
X143803508Y-113739513D01*
X143803166Y-113880000D01*
X143810484Y-113954297D01*
X143832155Y-114025739D01*
X143867348Y-114091580D01*
X143914710Y-114149290D01*
X143972420Y-114196652D01*
X144038261Y-114231845D01*
X144109703Y-114253516D01*
X144184000Y-114260834D01*
X144937250Y-114259000D01*
X145032000Y-114164250D01*
X145032000Y-113032000D01*
X145036000Y-113032000D01*
X145036000Y-114164250D01*
X145130750Y-114259000D01*
X145884000Y-114260834D01*
X145958297Y-114253516D01*
X146029739Y-114231845D01*
X146095580Y-114196652D01*
X146153290Y-114149290D01*
X146200652Y-114091580D01*
X146235845Y-114025739D01*
X146257516Y-113954297D01*
X146264834Y-113880000D01*
X146263000Y-113126750D01*
X146168250Y-113032000D01*
X145036000Y-113032000D01*
X145032000Y-113032000D01*
X145012000Y-113032000D01*
X145012000Y-113028000D01*
X145032000Y-113028000D01*
X145032000Y-111895750D01*
X145036000Y-111895750D01*
X145036000Y-113028000D01*
X146168250Y-113028000D01*
X146263000Y-112933250D01*
X146264834Y-112180000D01*
X146257516Y-112105703D01*
X146235845Y-112034261D01*
X146200652Y-111968420D01*
X146153290Y-111910710D01*
X146095580Y-111863348D01*
X146029739Y-111828155D01*
X145958297Y-111806484D01*
X145884000Y-111799166D01*
X145130750Y-111801000D01*
X145036000Y-111895750D01*
X145032000Y-111895750D01*
X144937250Y-111801000D01*
X144184000Y-111799166D01*
X144109703Y-111806484D01*
X144038261Y-111828155D01*
X143972420Y-111863348D01*
X143914710Y-111910710D01*
X143867348Y-111968420D01*
X143832155Y-112034261D01*
X143810484Y-112105703D01*
X143803166Y-112180000D01*
X143803508Y-112320487D01*
X143645922Y-112084642D01*
X143439358Y-111878078D01*
X143196464Y-111715782D01*
X142926575Y-111603990D01*
X142640063Y-111547000D01*
X142347937Y-111547000D01*
X142061425Y-111603990D01*
X141791536Y-111715782D01*
X141548642Y-111878078D01*
X141342078Y-112084642D01*
X141179782Y-112327536D01*
X141067990Y-112597425D01*
X141011000Y-112883937D01*
X122578000Y-112883937D01*
X122578000Y-82582319D01*
X122581183Y-82550000D01*
X122568479Y-82421009D01*
X122530853Y-82296976D01*
X122469753Y-82182665D01*
X122408129Y-82107576D01*
X122408127Y-82107574D01*
X122387527Y-82082473D01*
X122362426Y-82061873D01*
X115572553Y-75272000D01*
X119927166Y-75272000D01*
X119934484Y-75346297D01*
X119956155Y-75417739D01*
X119991348Y-75483580D01*
X120038710Y-75541290D01*
X120096420Y-75588652D01*
X120162261Y-75623845D01*
X120233703Y-75645516D01*
X120308000Y-75652834D01*
X121061250Y-75651000D01*
X121156000Y-75556250D01*
X121156000Y-74424000D01*
X121160000Y-74424000D01*
X121160000Y-75556250D01*
X121254750Y-75651000D01*
X122008000Y-75652834D01*
X122082297Y-75645516D01*
X122153739Y-75623845D01*
X122219580Y-75588652D01*
X122277290Y-75541290D01*
X122324652Y-75483580D01*
X122359845Y-75417739D01*
X122381516Y-75346297D01*
X122388834Y-75272000D01*
X122387000Y-74518750D01*
X122292250Y-74424000D01*
X121160000Y-74424000D01*
X121156000Y-74424000D01*
X120023750Y-74424000D01*
X119929000Y-74518750D01*
X119927166Y-75272000D01*
X115572553Y-75272000D01*
X110170423Y-69869871D01*
X110095334Y-69808247D01*
X109981023Y-69747147D01*
X109856990Y-69709521D01*
X109792336Y-69703153D01*
X109792209Y-69703140D01*
X109790309Y-69702954D01*
X109728000Y-69696817D01*
X109727861Y-69696831D01*
X109165719Y-69641713D01*
X108624861Y-69478418D01*
X108126021Y-69213180D01*
X107688191Y-68856095D01*
X107328064Y-68420776D01*
X107059350Y-67923798D01*
X106892282Y-67384090D01*
X106833226Y-66822212D01*
X106855386Y-66578717D01*
X107460969Y-66578717D01*
X107460969Y-67025283D01*
X107548090Y-67463268D01*
X107718983Y-67875842D01*
X107967082Y-68247148D01*
X108282852Y-68562918D01*
X108654158Y-68811017D01*
X109066732Y-68981910D01*
X109504717Y-69069031D01*
X109951283Y-69069031D01*
X110389268Y-68981910D01*
X110801842Y-68811017D01*
X111173148Y-68562918D01*
X111488918Y-68247148D01*
X111737017Y-67875842D01*
X111907910Y-67463268D01*
X111995031Y-67025283D01*
X111995031Y-66578717D01*
X111907910Y-66140732D01*
X111737017Y-65728158D01*
X111488918Y-65356852D01*
X111173148Y-65041082D01*
X110801842Y-64792983D01*
X110389268Y-64622090D01*
X109951283Y-64534969D01*
X109504717Y-64534969D01*
X109066732Y-64622090D01*
X108654158Y-64792983D01*
X108282852Y-65041082D01*
X107967082Y-65356852D01*
X107718983Y-65728158D01*
X107548090Y-66140732D01*
X107460969Y-66578717D01*
X106855386Y-66578717D01*
X106884432Y-66259560D01*
X107043947Y-65717572D01*
X107305699Y-65216887D01*
X107659714Y-64776581D01*
X108092510Y-64413423D01*
X108587599Y-64141246D01*
X109126128Y-63970414D01*
X109717425Y-63904090D01*
X109730309Y-63904000D01*
X134495000Y-63904000D01*
X134495000Y-70362000D01*
%TA.AperFunction,Conductor*%
D18*
G36*
X134495000Y-70362000D02*
G01*
X127059973Y-70362000D01*
X126546323Y-69848351D01*
X126522580Y-69819420D01*
X126407160Y-69724697D01*
X126275477Y-69654311D01*
X126132594Y-69610968D01*
X126021232Y-69600000D01*
X125984000Y-69596333D01*
X125946768Y-69600000D01*
X122618735Y-69600000D01*
X122641000Y-69488063D01*
X122641000Y-69195937D01*
X122584010Y-68909425D01*
X122472218Y-68639536D01*
X122309922Y-68396642D01*
X122103358Y-68190078D01*
X121926641Y-68072000D01*
X122103358Y-67953922D01*
X122309922Y-67747358D01*
X122357025Y-67676862D01*
X127853000Y-67676862D01*
X127853000Y-67959138D01*
X127908069Y-68235991D01*
X128016092Y-68496780D01*
X128172916Y-68731484D01*
X128372516Y-68931084D01*
X128607220Y-69087908D01*
X128868009Y-69195931D01*
X129144862Y-69251000D01*
X129427138Y-69251000D01*
X129703991Y-69195931D01*
X129964780Y-69087908D01*
X130199484Y-68931084D01*
X130399084Y-68731484D01*
X130555908Y-68496780D01*
X130663931Y-68235991D01*
X130719000Y-67959138D01*
X130719000Y-67676862D01*
X130663931Y-67400009D01*
X130555908Y-67139220D01*
X130399084Y-66904516D01*
X130199484Y-66704916D01*
X129964780Y-66548092D01*
X129703991Y-66440069D01*
X129427138Y-66385000D01*
X129144862Y-66385000D01*
X128868009Y-66440069D01*
X128607220Y-66548092D01*
X128372516Y-66704916D01*
X128172916Y-66904516D01*
X128016092Y-67139220D01*
X127908069Y-67400009D01*
X127853000Y-67676862D01*
X122357025Y-67676862D01*
X122472218Y-67504464D01*
X122584010Y-67234575D01*
X122641000Y-66948063D01*
X122641000Y-66655937D01*
X122584010Y-66369425D01*
X122472218Y-66099536D01*
X122309922Y-65856642D01*
X122103358Y-65650078D01*
X121860464Y-65487782D01*
X121590575Y-65375990D01*
X121304063Y-65319000D01*
X121011937Y-65319000D01*
X120725425Y-65375990D01*
X120455536Y-65487782D01*
X120212642Y-65650078D01*
X120006078Y-65856642D01*
X119843782Y-66099536D01*
X119731990Y-66369425D01*
X119675000Y-66655937D01*
X119675000Y-66948063D01*
X119731990Y-67234575D01*
X119843782Y-67504464D01*
X120006078Y-67747358D01*
X120212642Y-67953922D01*
X120389359Y-68072000D01*
X120212642Y-68190078D01*
X120006078Y-68396642D01*
X119843782Y-68639536D01*
X119731990Y-68909425D01*
X119675000Y-69195937D01*
X119675000Y-69488063D01*
X119731990Y-69774575D01*
X119843782Y-70044464D01*
X120006078Y-70287358D01*
X120212642Y-70493922D01*
X120389359Y-70612000D01*
X120212642Y-70730078D01*
X120006078Y-70936642D01*
X119843782Y-71179536D01*
X119731990Y-71449425D01*
X119675000Y-71735937D01*
X119675000Y-72028063D01*
X119731990Y-72314575D01*
X119843782Y-72584464D01*
X120006078Y-72827358D01*
X120212642Y-73033922D01*
X120448487Y-73191508D01*
X120308000Y-73191166D01*
X120233703Y-73198484D01*
X120162261Y-73220155D01*
X120096420Y-73255348D01*
X120038710Y-73302710D01*
X119991348Y-73360420D01*
X119956155Y-73426261D01*
X119934484Y-73497703D01*
X119927166Y-73572000D01*
X119929000Y-74325250D01*
X120023750Y-74420000D01*
X121156000Y-74420000D01*
X121156000Y-74400000D01*
X121160000Y-74400000D01*
X121160000Y-74420000D01*
X122292250Y-74420000D01*
X122387000Y-74325250D01*
X122388834Y-73572000D01*
X122381516Y-73497703D01*
X122359845Y-73426261D01*
X122324652Y-73360420D01*
X122277290Y-73302710D01*
X122219580Y-73255348D01*
X122153739Y-73220155D01*
X122082297Y-73198484D01*
X122008000Y-73191166D01*
X121867513Y-73191508D01*
X122103358Y-73033922D01*
X122309922Y-72827358D01*
X122472218Y-72584464D01*
X122584010Y-72314575D01*
X122641000Y-72028063D01*
X122641000Y-71735937D01*
X122607200Y-71566010D01*
X125483627Y-71566010D01*
X125997285Y-72079669D01*
X126021020Y-72108590D01*
X126136440Y-72203313D01*
X126268123Y-72273699D01*
X126411006Y-72317042D01*
X126559600Y-72331677D01*
X126596832Y-72328010D01*
X134531938Y-72328010D01*
X134531938Y-73200000D01*
X134544160Y-73324090D01*
X134580355Y-73443410D01*
X134639134Y-73553377D01*
X134718236Y-73649764D01*
X134779449Y-73700000D01*
X134718236Y-73750236D01*
X134639134Y-73846623D01*
X134580355Y-73956590D01*
X134544160Y-74075910D01*
X134531938Y-74200000D01*
X134531938Y-75200000D01*
X134544160Y-75324090D01*
X134580355Y-75443410D01*
X134639134Y-75553377D01*
X134718236Y-75649764D01*
X134779449Y-75700000D01*
X134718236Y-75750236D01*
X134639134Y-75846623D01*
X134588154Y-75942000D01*
X130601232Y-75942000D01*
X130564000Y-75938333D01*
X130526768Y-75942000D01*
X130415406Y-75952968D01*
X130272523Y-75996311D01*
X130140840Y-76066697D01*
X130025420Y-76161420D01*
X130001681Y-76190346D01*
X129610546Y-76581482D01*
X129427138Y-76545000D01*
X129144862Y-76545000D01*
X128868009Y-76600069D01*
X128607220Y-76708092D01*
X128372516Y-76864916D01*
X128172916Y-77064516D01*
X128016092Y-77299220D01*
X127908069Y-77560009D01*
X127853000Y-77836862D01*
X127853000Y-78119138D01*
X127908069Y-78395991D01*
X128016092Y-78656780D01*
X128172916Y-78891484D01*
X128372516Y-79091084D01*
X128607220Y-79247908D01*
X128868009Y-79355931D01*
X129144862Y-79411000D01*
X129427138Y-79411000D01*
X129703991Y-79355931D01*
X129964780Y-79247908D01*
X130199484Y-79091084D01*
X130399084Y-78891484D01*
X130555908Y-78656780D01*
X130663931Y-78395991D01*
X130719000Y-78119138D01*
X130719000Y-77836862D01*
X130682518Y-77653454D01*
X130877973Y-77458000D01*
X134588154Y-77458000D01*
X134639134Y-77553377D01*
X134718236Y-77649764D01*
X134779449Y-77700000D01*
X134718236Y-77750236D01*
X134639134Y-77846623D01*
X134588154Y-77942000D01*
X132919232Y-77942000D01*
X132882000Y-77938333D01*
X132844768Y-77942000D01*
X132733406Y-77952968D01*
X132590523Y-77996311D01*
X132458840Y-78066697D01*
X132343420Y-78161420D01*
X132319681Y-78190346D01*
X129610546Y-80899482D01*
X129427138Y-80863000D01*
X129144862Y-80863000D01*
X128868009Y-80918069D01*
X128607220Y-81026092D01*
X128372516Y-81182916D01*
X128172916Y-81382516D01*
X128016092Y-81617220D01*
X127908069Y-81878009D01*
X127853000Y-82154862D01*
X127853000Y-82437138D01*
X127908069Y-82713991D01*
X128016092Y-82974780D01*
X128172916Y-83209484D01*
X128372516Y-83409084D01*
X128607220Y-83565908D01*
X128868009Y-83673931D01*
X129144862Y-83729000D01*
X129427138Y-83729000D01*
X129703991Y-83673931D01*
X129964780Y-83565908D01*
X130199484Y-83409084D01*
X130399084Y-83209484D01*
X130555908Y-82974780D01*
X130663931Y-82713991D01*
X130719000Y-82437138D01*
X130719000Y-82154862D01*
X130682518Y-81971454D01*
X133195973Y-79458000D01*
X134588154Y-79458000D01*
X134639134Y-79553377D01*
X134718236Y-79649764D01*
X134779449Y-79700000D01*
X134718236Y-79750236D01*
X134639134Y-79846623D01*
X134580355Y-79956590D01*
X134544160Y-80075910D01*
X134531938Y-80200000D01*
X134531938Y-81200000D01*
X134544160Y-81324090D01*
X134580355Y-81443410D01*
X134639134Y-81553377D01*
X134718236Y-81649764D01*
X134779449Y-81700000D01*
X134718236Y-81750236D01*
X134639134Y-81846623D01*
X134580355Y-81956590D01*
X134544160Y-82075910D01*
X134531938Y-82200000D01*
X134531938Y-83200000D01*
X134544160Y-83324090D01*
X134580355Y-83443410D01*
X134639134Y-83553377D01*
X134718236Y-83649764D01*
X134779449Y-83700000D01*
X134718236Y-83750236D01*
X134639134Y-83846623D01*
X134580355Y-83956590D01*
X134544160Y-84075910D01*
X134531938Y-84200000D01*
X134531938Y-85200000D01*
X134544160Y-85324090D01*
X134580355Y-85443410D01*
X134639134Y-85553377D01*
X134718236Y-85649764D01*
X134779449Y-85700000D01*
X134718236Y-85750236D01*
X134639134Y-85846623D01*
X134588630Y-85941109D01*
X134549058Y-85962260D01*
X134414604Y-86072604D01*
X134386956Y-86106293D01*
X129463098Y-91030153D01*
X129427138Y-91023000D01*
X129144862Y-91023000D01*
X128868009Y-91078069D01*
X128607220Y-91186092D01*
X128372516Y-91342916D01*
X128172916Y-91542516D01*
X128016092Y-91777220D01*
X127908069Y-92038009D01*
X127853000Y-92314862D01*
X127853000Y-92597138D01*
X127908069Y-92873991D01*
X128016092Y-93134780D01*
X128172916Y-93369484D01*
X128372516Y-93569084D01*
X128403001Y-93589453D01*
X128403000Y-96222634D01*
X128398729Y-96266000D01*
X128403000Y-96309366D01*
X128403000Y-96309372D01*
X128407431Y-96354357D01*
X128414822Y-96429396D01*
X128415777Y-96439097D01*
X128466268Y-96605543D01*
X128548260Y-96758941D01*
X128658604Y-96893396D01*
X128692304Y-96921053D01*
X131043954Y-99272705D01*
X131071604Y-99306396D01*
X131206058Y-99416740D01*
X131359456Y-99498732D01*
X131475410Y-99533906D01*
X131525901Y-99549223D01*
X131544127Y-99551018D01*
X131655627Y-99562000D01*
X131655633Y-99562000D01*
X131698999Y-99566271D01*
X131742365Y-99562000D01*
X136540251Y-99562000D01*
X138655153Y-101676902D01*
X138648000Y-101712862D01*
X138648000Y-101995138D01*
X138703069Y-102271991D01*
X138811092Y-102532780D01*
X138967916Y-102767484D01*
X139167516Y-102967084D01*
X139402220Y-103123908D01*
X139663009Y-103231931D01*
X139690904Y-103237480D01*
X139669079Y-103243214D01*
X139460291Y-103344920D01*
X139386268Y-103394380D01*
X139311701Y-103581873D01*
X140081000Y-104351172D01*
X140850299Y-103581873D01*
X140775732Y-103394380D01*
X140575171Y-103277284D01*
X140463905Y-103238910D01*
X140498991Y-103231931D01*
X140759780Y-103123908D01*
X140788172Y-103104937D01*
X149647000Y-103104937D01*
X149647000Y-103397063D01*
X149703990Y-103683575D01*
X149815782Y-103953464D01*
X149978078Y-104196358D01*
X150184642Y-104402922D01*
X150361359Y-104521000D01*
X150184642Y-104639078D01*
X149978078Y-104845642D01*
X149815782Y-105088536D01*
X149703990Y-105358425D01*
X149647000Y-105644937D01*
X149647000Y-105937063D01*
X149703990Y-106223575D01*
X149815782Y-106493464D01*
X149978078Y-106736358D01*
X150184642Y-106942922D01*
X150427536Y-107105218D01*
X150697425Y-107217010D01*
X150983937Y-107274000D01*
X151276063Y-107274000D01*
X151562575Y-107217010D01*
X151832464Y-107105218D01*
X152075358Y-106942922D01*
X152281922Y-106736358D01*
X152444218Y-106493464D01*
X152556010Y-106223575D01*
X152613000Y-105937063D01*
X152613000Y-105644937D01*
X152556010Y-105358425D01*
X152444218Y-105088536D01*
X152281922Y-104845642D01*
X152075358Y-104639078D01*
X151898641Y-104521000D01*
X152075358Y-104402922D01*
X152281922Y-104196358D01*
X152444218Y-103953464D01*
X152556010Y-103683575D01*
X152613000Y-103397063D01*
X152613000Y-103104937D01*
X152556010Y-102818425D01*
X152444218Y-102548536D01*
X152281922Y-102305642D01*
X152075358Y-102099078D01*
X151839513Y-101941492D01*
X151980000Y-101941834D01*
X152054297Y-101934516D01*
X152125739Y-101912845D01*
X152191580Y-101877652D01*
X152249290Y-101830290D01*
X152296652Y-101772580D01*
X152331845Y-101706739D01*
X152353516Y-101635297D01*
X152360834Y-101561000D01*
X152359000Y-100807750D01*
X152264250Y-100713000D01*
X151132000Y-100713000D01*
X151132000Y-100733000D01*
X151128000Y-100733000D01*
X151128000Y-100713000D01*
X149995750Y-100713000D01*
X149901000Y-100807750D01*
X149899166Y-101561000D01*
X149906484Y-101635297D01*
X149928155Y-101706739D01*
X149963348Y-101772580D01*
X150010710Y-101830290D01*
X150068420Y-101877652D01*
X150134261Y-101912845D01*
X150205703Y-101934516D01*
X150280000Y-101941834D01*
X150420487Y-101941492D01*
X150184642Y-102099078D01*
X149978078Y-102305642D01*
X149815782Y-102548536D01*
X149703990Y-102818425D01*
X149647000Y-103104937D01*
X140788172Y-103104937D01*
X140994484Y-102967084D01*
X141194084Y-102767484D01*
X141350908Y-102532780D01*
X141458931Y-102271991D01*
X141514000Y-101995138D01*
X141514000Y-101712862D01*
X141458931Y-101436009D01*
X141350908Y-101175220D01*
X141194084Y-100940516D01*
X140994484Y-100740916D01*
X140759780Y-100584092D01*
X140498991Y-100476069D01*
X140222138Y-100421000D01*
X139939862Y-100421000D01*
X139903902Y-100428153D01*
X139336749Y-99861000D01*
X149899166Y-99861000D01*
X149901000Y-100614250D01*
X149995750Y-100709000D01*
X151128000Y-100709000D01*
X151128000Y-99576750D01*
X151132000Y-99576750D01*
X151132000Y-100709000D01*
X152264250Y-100709000D01*
X152359000Y-100614250D01*
X152360834Y-99861000D01*
X152353516Y-99786703D01*
X152331845Y-99715261D01*
X152296652Y-99649420D01*
X152249290Y-99591710D01*
X152191580Y-99544348D01*
X152125739Y-99509155D01*
X152054297Y-99487484D01*
X151980000Y-99480166D01*
X151226750Y-99482000D01*
X151132000Y-99576750D01*
X151128000Y-99576750D01*
X151033250Y-99482000D01*
X150280000Y-99480166D01*
X150205703Y-99487484D01*
X150134261Y-99509155D01*
X150068420Y-99544348D01*
X150010710Y-99591710D01*
X149963348Y-99649420D01*
X149928155Y-99715261D01*
X149906484Y-99786703D01*
X149899166Y-99861000D01*
X139336749Y-99861000D01*
X137561053Y-98085304D01*
X137533396Y-98051604D01*
X137398942Y-97941260D01*
X137245544Y-97859268D01*
X137079098Y-97808777D01*
X136949373Y-97796000D01*
X136949366Y-97796000D01*
X136906000Y-97791729D01*
X136862634Y-97796000D01*
X132064751Y-97796000D01*
X130169000Y-95900251D01*
X130169000Y-93589453D01*
X130199484Y-93569084D01*
X130399084Y-93369484D01*
X130555908Y-93134780D01*
X130663931Y-92873991D01*
X130719000Y-92597138D01*
X130719000Y-92314862D01*
X130711847Y-92278902D01*
X135155882Y-87834868D01*
X135168000Y-87836062D01*
X137668000Y-87836062D01*
X137792090Y-87823840D01*
X137911410Y-87787645D01*
X138021377Y-87728866D01*
X138117764Y-87649764D01*
X138196866Y-87553377D01*
X138255645Y-87443410D01*
X138291840Y-87324090D01*
X138304062Y-87200000D01*
X138304062Y-86200000D01*
X138291840Y-86075910D01*
X138255645Y-85956590D01*
X138196866Y-85846623D01*
X138117764Y-85750236D01*
X138056551Y-85700000D01*
X138117764Y-85649764D01*
X138196866Y-85553377D01*
X138255645Y-85443410D01*
X138291840Y-85324090D01*
X138304062Y-85200000D01*
X138304062Y-84200000D01*
X138291840Y-84075910D01*
X138255645Y-83956590D01*
X138196866Y-83846623D01*
X138117764Y-83750236D01*
X138056551Y-83700000D01*
X138117764Y-83649764D01*
X138196866Y-83553377D01*
X138255645Y-83443410D01*
X138291840Y-83324090D01*
X138304062Y-83200000D01*
X138304062Y-82200000D01*
X138291840Y-82075910D01*
X138255645Y-81956590D01*
X138196866Y-81846623D01*
X138117764Y-81750236D01*
X138056551Y-81700000D01*
X138117764Y-81649764D01*
X138196866Y-81553377D01*
X138255645Y-81443410D01*
X138291840Y-81324090D01*
X138304062Y-81200000D01*
X138304062Y-80200000D01*
X138291840Y-80075910D01*
X138255645Y-79956590D01*
X138196866Y-79846623D01*
X138117764Y-79750236D01*
X138056551Y-79700000D01*
X138117764Y-79649764D01*
X138196866Y-79553377D01*
X138247547Y-79458560D01*
X138253232Y-79458000D01*
X138364594Y-79447032D01*
X138507477Y-79403689D01*
X138639160Y-79333303D01*
X138754580Y-79238580D01*
X138778324Y-79209648D01*
X139193649Y-78794323D01*
X139222580Y-78770580D01*
X139317303Y-78655160D01*
X139387689Y-78523477D01*
X139431032Y-78380594D01*
X139442000Y-78269232D01*
X139442000Y-78269231D01*
X139445667Y-78232000D01*
X139442000Y-78194768D01*
X139442000Y-73332384D01*
X139771275Y-73661659D01*
X139795010Y-73690580D01*
X139910430Y-73785303D01*
X140042113Y-73855689D01*
X140184996Y-73899032D01*
X140333590Y-73913667D01*
X140370822Y-73910000D01*
X148530028Y-73910000D01*
X149731938Y-75111912D01*
X149731938Y-75200000D01*
X149744160Y-75324090D01*
X149780355Y-75443410D01*
X149839134Y-75553377D01*
X149918236Y-75649764D01*
X149979449Y-75700000D01*
X149918236Y-75750236D01*
X149839134Y-75846623D01*
X149788154Y-75942000D01*
X148736832Y-75942000D01*
X148699600Y-75938333D01*
X148662368Y-75942000D01*
X148551006Y-75952968D01*
X148408123Y-75996311D01*
X148276440Y-76066697D01*
X148161020Y-76161420D01*
X148137281Y-76190346D01*
X145845152Y-78482476D01*
X145816220Y-78506220D01*
X145721497Y-78621641D01*
X145651111Y-78753324D01*
X145634513Y-78808041D01*
X145607768Y-78896207D01*
X145593133Y-79044800D01*
X145596800Y-79082032D01*
X145596801Y-89167558D01*
X145593133Y-89204800D01*
X145607768Y-89353393D01*
X145634514Y-89441560D01*
X145651112Y-89496277D01*
X145721498Y-89627960D01*
X145816221Y-89743380D01*
X145845147Y-89767119D01*
X152969990Y-96891964D01*
X152969991Y-103144748D01*
X152966323Y-103181990D01*
X152980958Y-103330583D01*
X153024302Y-103473467D01*
X153088651Y-103593855D01*
X153094688Y-103605150D01*
X153189411Y-103720570D01*
X153218337Y-103744309D01*
X156917685Y-107443659D01*
X156941420Y-107472580D01*
X157056840Y-107567303D01*
X157188523Y-107637689D01*
X157331406Y-107681032D01*
X157442768Y-107692000D01*
X157442777Y-107692000D01*
X157479999Y-107695666D01*
X157517221Y-107692000D01*
X157726890Y-107692000D01*
X157852078Y-107879358D01*
X158058642Y-108085922D01*
X158301536Y-108248218D01*
X158571425Y-108360010D01*
X158857937Y-108417000D01*
X159150063Y-108417000D01*
X159436575Y-108360010D01*
X159706464Y-108248218D01*
X159949358Y-108085922D01*
X160155922Y-107879358D01*
X160318218Y-107636464D01*
X160430010Y-107366575D01*
X160487000Y-107080063D01*
X160487000Y-106787937D01*
X160430010Y-106501425D01*
X160318218Y-106231536D01*
X160155922Y-105988642D01*
X159949358Y-105782078D01*
X159772641Y-105664000D01*
X159949358Y-105545922D01*
X160155922Y-105339358D01*
X160318218Y-105096464D01*
X160430010Y-104826575D01*
X160487000Y-104540063D01*
X160487000Y-104247937D01*
X160430010Y-103961425D01*
X160318218Y-103691536D01*
X160155922Y-103448642D01*
X159949358Y-103242078D01*
X159706464Y-103079782D01*
X159476254Y-102984426D01*
X159647855Y-102900848D01*
X159839713Y-102755123D01*
X159999455Y-102574769D01*
X160120943Y-102366716D01*
X160199507Y-102138960D01*
X160217554Y-102048233D01*
X160138248Y-101856000D01*
X159006000Y-101856000D01*
X159006000Y-101876000D01*
X159002000Y-101876000D01*
X159002000Y-101856000D01*
X157869752Y-101856000D01*
X157790446Y-102048233D01*
X157808493Y-102138960D01*
X157887057Y-102366716D01*
X158008545Y-102574769D01*
X158168287Y-102755123D01*
X158360145Y-102900848D01*
X158531746Y-102984426D01*
X158301536Y-103079782D01*
X158058642Y-103242078D01*
X157852078Y-103448642D01*
X157726890Y-103636000D01*
X155890384Y-103636000D01*
X154936000Y-102681618D01*
X154935999Y-98464000D01*
X157517938Y-98464000D01*
X157517938Y-100164000D01*
X157530160Y-100288090D01*
X157566355Y-100407410D01*
X157625134Y-100517377D01*
X157704236Y-100613764D01*
X157800623Y-100692866D01*
X157910590Y-100751645D01*
X158029910Y-100787840D01*
X158154000Y-100800062D01*
X158374702Y-100800062D01*
X158360145Y-100807152D01*
X158168287Y-100952877D01*
X158008545Y-101133231D01*
X157887057Y-101341284D01*
X157808493Y-101569040D01*
X157790446Y-101659767D01*
X157869752Y-101852000D01*
X159002000Y-101852000D01*
X159002000Y-101832000D01*
X159006000Y-101832000D01*
X159006000Y-101852000D01*
X160138248Y-101852000D01*
X160217554Y-101659767D01*
X160199507Y-101569040D01*
X160120943Y-101341284D01*
X159999455Y-101133231D01*
X159839713Y-100952877D01*
X159647855Y-100807152D01*
X159633298Y-100800062D01*
X159854000Y-100800062D01*
X159978090Y-100787840D01*
X160097410Y-100751645D01*
X160207377Y-100692866D01*
X160303764Y-100613764D01*
X160382866Y-100517377D01*
X160441645Y-100407410D01*
X160477840Y-100288090D01*
X160490062Y-100164000D01*
X160490062Y-98464000D01*
X160477840Y-98339910D01*
X160441645Y-98220590D01*
X160382866Y-98110623D01*
X160303764Y-98014236D01*
X160207377Y-97935134D01*
X160097410Y-97876355D01*
X159978090Y-97840160D01*
X159854000Y-97827938D01*
X158154000Y-97827938D01*
X158029910Y-97840160D01*
X157910590Y-97876355D01*
X157800623Y-97935134D01*
X157704236Y-98014236D01*
X157625134Y-98110623D01*
X157566355Y-98220590D01*
X157530160Y-98339910D01*
X157517938Y-98464000D01*
X154935999Y-98464000D01*
X154935998Y-96428831D01*
X154939666Y-96391589D01*
X154925031Y-96242995D01*
X154881687Y-96100111D01*
X154811302Y-95968429D01*
X154740313Y-95881929D01*
X154740308Y-95881924D01*
X154716578Y-95853009D01*
X154687663Y-95829279D01*
X147562810Y-88704428D01*
X147562810Y-79545173D01*
X147649983Y-79458000D01*
X149788154Y-79458000D01*
X149839134Y-79553377D01*
X149918236Y-79649764D01*
X149979449Y-79700000D01*
X149918236Y-79750236D01*
X149839134Y-79846623D01*
X149780355Y-79956590D01*
X149744160Y-80075910D01*
X149731938Y-80200000D01*
X149731938Y-81200000D01*
X149744160Y-81324090D01*
X149780355Y-81443410D01*
X149839134Y-81553377D01*
X149918236Y-81649764D01*
X149979449Y-81700000D01*
X149918236Y-81750236D01*
X149839134Y-81846623D01*
X149780355Y-81956590D01*
X149757040Y-82033451D01*
X149694840Y-82066697D01*
X149579420Y-82161420D01*
X149555685Y-82190341D01*
X148740746Y-83005281D01*
X148711821Y-83029020D01*
X148653772Y-83099753D01*
X148617097Y-83144441D01*
X148546712Y-83276123D01*
X148503368Y-83419007D01*
X148488733Y-83567600D01*
X148492401Y-83604842D01*
X148492400Y-87948368D01*
X148488733Y-87985600D01*
X148492400Y-88022831D01*
X148503368Y-88134193D01*
X148546711Y-88277076D01*
X148617097Y-88408759D01*
X148711820Y-88524180D01*
X148740752Y-88547924D01*
X156409685Y-96216859D01*
X156433420Y-96245780D01*
X156548840Y-96340503D01*
X156680523Y-96410889D01*
X156823406Y-96454232D01*
X156934768Y-96465200D01*
X156934777Y-96465200D01*
X156971999Y-96468866D01*
X157009221Y-96465200D01*
X159858428Y-96465200D01*
X161548001Y-98154774D01*
X161548000Y-107382026D01*
X160257638Y-108672390D01*
X134166774Y-108672390D01*
X130620510Y-105126127D01*
X139311701Y-105126127D01*
X139386268Y-105313620D01*
X139586829Y-105430716D01*
X139806381Y-105506436D01*
X140036487Y-105537867D01*
X140268303Y-105523804D01*
X140492921Y-105464786D01*
X140701709Y-105363080D01*
X140775732Y-105313620D01*
X140850299Y-105126127D01*
X140081000Y-104356828D01*
X139311701Y-105126127D01*
X130620510Y-105126127D01*
X130034000Y-104539618D01*
X130034000Y-104227110D01*
X130221358Y-104101922D01*
X130427922Y-103895358D01*
X130590218Y-103652464D01*
X130685574Y-103422254D01*
X130769152Y-103593855D01*
X130914877Y-103785713D01*
X131095231Y-103945455D01*
X131303284Y-104066943D01*
X131531040Y-104145507D01*
X131621767Y-104163554D01*
X131814000Y-104084248D01*
X131814000Y-102952000D01*
X131794000Y-102952000D01*
X131794000Y-102948000D01*
X131814000Y-102948000D01*
X131814000Y-101815752D01*
X131818000Y-101815752D01*
X131818000Y-102948000D01*
X131838000Y-102948000D01*
X131838000Y-102952000D01*
X131818000Y-102952000D01*
X131818000Y-104084248D01*
X132010233Y-104163554D01*
X132100960Y-104145507D01*
X132328716Y-104066943D01*
X132536769Y-103945455D01*
X132717123Y-103785713D01*
X132862848Y-103593855D01*
X132869938Y-103579298D01*
X132869938Y-103800000D01*
X132882160Y-103924090D01*
X132918355Y-104043410D01*
X132977134Y-104153377D01*
X133056236Y-104249764D01*
X133152623Y-104328866D01*
X133262590Y-104387645D01*
X133381910Y-104423840D01*
X133506000Y-104436062D01*
X135206000Y-104436062D01*
X135330090Y-104423840D01*
X135449410Y-104387645D01*
X135559377Y-104328866D01*
X135582990Y-104309487D01*
X138897133Y-104309487D01*
X138911196Y-104541303D01*
X138970214Y-104765921D01*
X139071920Y-104974709D01*
X139121380Y-105048732D01*
X139308873Y-105123299D01*
X140078172Y-104354000D01*
X140083828Y-104354000D01*
X140853127Y-105123299D01*
X141040620Y-105048732D01*
X141157716Y-104848171D01*
X141233436Y-104628619D01*
X141264867Y-104398513D01*
X141250804Y-104166697D01*
X141191786Y-103942079D01*
X141090080Y-103733291D01*
X141040620Y-103659268D01*
X140853127Y-103584701D01*
X140083828Y-104354000D01*
X140078172Y-104354000D01*
X139308873Y-103584701D01*
X139121380Y-103659268D01*
X139004284Y-103859829D01*
X138928564Y-104079381D01*
X138897133Y-104309487D01*
X135582990Y-104309487D01*
X135655764Y-104249764D01*
X135734866Y-104153377D01*
X135793645Y-104043410D01*
X135829840Y-103924090D01*
X135842062Y-103800000D01*
X135842062Y-102100000D01*
X135829840Y-101975910D01*
X135793645Y-101856590D01*
X135734866Y-101746623D01*
X135655764Y-101650236D01*
X135559377Y-101571134D01*
X135449410Y-101512355D01*
X135330090Y-101476160D01*
X135206000Y-101463938D01*
X133506000Y-101463938D01*
X133381910Y-101476160D01*
X133262590Y-101512355D01*
X133152623Y-101571134D01*
X133056236Y-101650236D01*
X132977134Y-101746623D01*
X132918355Y-101856590D01*
X132882160Y-101975910D01*
X132869938Y-102100000D01*
X132869938Y-102320702D01*
X132862848Y-102306145D01*
X132717123Y-102114287D01*
X132536769Y-101954545D01*
X132328716Y-101833057D01*
X132100960Y-101754493D01*
X132010233Y-101736446D01*
X131818000Y-101815752D01*
X131814000Y-101815752D01*
X131621767Y-101736446D01*
X131531040Y-101754493D01*
X131303284Y-101833057D01*
X131095231Y-101954545D01*
X130914877Y-102114287D01*
X130769152Y-102306145D01*
X130685574Y-102477746D01*
X130590218Y-102247536D01*
X130427922Y-102004642D01*
X130221358Y-101798078D01*
X129978464Y-101635782D01*
X129708575Y-101523990D01*
X129422063Y-101467000D01*
X129129937Y-101467000D01*
X128843425Y-101523990D01*
X128573536Y-101635782D01*
X128330642Y-101798078D01*
X128124078Y-102004642D01*
X128006000Y-102181359D01*
X127887922Y-102004642D01*
X127681358Y-101798078D01*
X127438464Y-101635782D01*
X127168575Y-101523990D01*
X126882063Y-101467000D01*
X126589937Y-101467000D01*
X126303425Y-101523990D01*
X126033536Y-101635782D01*
X125790642Y-101798078D01*
X125584078Y-102004642D01*
X125421782Y-102247536D01*
X125309990Y-102517425D01*
X125253000Y-102803937D01*
X125253000Y-103096063D01*
X125309990Y-103382575D01*
X125421782Y-103652464D01*
X125584078Y-103895358D01*
X125790642Y-104101922D01*
X126033536Y-104264218D01*
X126303425Y-104376010D01*
X126589937Y-104433000D01*
X126882063Y-104433000D01*
X127103068Y-104389040D01*
X133104085Y-110390059D01*
X133127820Y-110418980D01*
X133243240Y-110513703D01*
X133374923Y-110584089D01*
X133517806Y-110627432D01*
X133666400Y-110642067D01*
X133703632Y-110638400D01*
X146650428Y-110638400D01*
X150963938Y-114951912D01*
X150963938Y-116116000D01*
X150976160Y-116240090D01*
X151012355Y-116359410D01*
X151071134Y-116469377D01*
X151150236Y-116565764D01*
X151246623Y-116644866D01*
X151356590Y-116703645D01*
X151475910Y-116739840D01*
X151600000Y-116752062D01*
X153200000Y-116752062D01*
X153324090Y-116739840D01*
X153443410Y-116703645D01*
X153553377Y-116644866D01*
X153649764Y-116565764D01*
X153728866Y-116469377D01*
X153787645Y-116359410D01*
X153823840Y-116240090D01*
X153836062Y-116116000D01*
X153836062Y-115502411D01*
X158855830Y-115502411D01*
X158873111Y-115589287D01*
X158948464Y-115807783D01*
X159064995Y-116007380D01*
X159218227Y-116180408D01*
X159402271Y-116320217D01*
X159610053Y-116421434D01*
X159833589Y-116480170D01*
X160018000Y-116400248D01*
X160018000Y-115318000D01*
X160022000Y-115318000D01*
X160022000Y-116400248D01*
X160206411Y-116480170D01*
X160429947Y-116421434D01*
X160637729Y-116320217D01*
X160821773Y-116180408D01*
X160975005Y-116007380D01*
X161091536Y-115807783D01*
X161166889Y-115589287D01*
X161184170Y-115502411D01*
X161104248Y-115318000D01*
X160022000Y-115318000D01*
X160018000Y-115318000D01*
X158935752Y-115318000D01*
X158855830Y-115502411D01*
X153836062Y-115502411D01*
X153836062Y-115129589D01*
X158855830Y-115129589D01*
X158935752Y-115314000D01*
X160018000Y-115314000D01*
X160018000Y-114231752D01*
X160022000Y-114231752D01*
X160022000Y-115314000D01*
X161104248Y-115314000D01*
X161184170Y-115129589D01*
X161166889Y-115042713D01*
X161091536Y-114824217D01*
X160975005Y-114624620D01*
X160821773Y-114451592D01*
X160637729Y-114311783D01*
X160429947Y-114210566D01*
X160206411Y-114151830D01*
X160022000Y-114231752D01*
X160018000Y-114231752D01*
X159833589Y-114151830D01*
X159610053Y-114210566D01*
X159402271Y-114311783D01*
X159218227Y-114451592D01*
X159064995Y-114624620D01*
X158948464Y-114824217D01*
X158873111Y-115042713D01*
X158855830Y-115129589D01*
X153836062Y-115129589D01*
X153836062Y-114516000D01*
X153823840Y-114391910D01*
X153787645Y-114272590D01*
X153728866Y-114162623D01*
X153649764Y-114066236D01*
X153553377Y-113987134D01*
X153443410Y-113928355D01*
X153324090Y-113892160D01*
X153200000Y-113879938D01*
X152035912Y-113879938D01*
X148344362Y-110188390D01*
X160534378Y-110188390D01*
X160571610Y-110192057D01*
X160608842Y-110188390D01*
X160720204Y-110177422D01*
X160863087Y-110134079D01*
X160994770Y-110063693D01*
X161110190Y-109968970D01*
X161133933Y-109940039D01*
X162815660Y-108258314D01*
X162844580Y-108234580D01*
X162939303Y-108119160D01*
X163009689Y-107987477D01*
X163053032Y-107844594D01*
X163064000Y-107733232D01*
X163064000Y-107733231D01*
X163067667Y-107696000D01*
X163064000Y-107658768D01*
X163064000Y-97878031D01*
X163067667Y-97840799D01*
X163053032Y-97692206D01*
X163009689Y-97549323D01*
X162939303Y-97417640D01*
X162844580Y-97302220D01*
X162815654Y-97278481D01*
X160734724Y-95197552D01*
X160710980Y-95168620D01*
X160595560Y-95073897D01*
X160463877Y-95003511D01*
X160320994Y-94960168D01*
X160209632Y-94949200D01*
X160172400Y-94945533D01*
X160135168Y-94949200D01*
X157285974Y-94949200D01*
X155564901Y-93228127D01*
X157980701Y-93228127D01*
X158055268Y-93415620D01*
X158255829Y-93532716D01*
X158475381Y-93608436D01*
X158705487Y-93639867D01*
X158937303Y-93625804D01*
X159161921Y-93566786D01*
X159370709Y-93465080D01*
X159444732Y-93415620D01*
X159519299Y-93228127D01*
X158750000Y-92458828D01*
X157980701Y-93228127D01*
X155564901Y-93228127D01*
X154748261Y-92411487D01*
X157566133Y-92411487D01*
X157580196Y-92643303D01*
X157639214Y-92867921D01*
X157740920Y-93076709D01*
X157790380Y-93150732D01*
X157977873Y-93225299D01*
X158747172Y-92456000D01*
X158752828Y-92456000D01*
X159522127Y-93225299D01*
X159709620Y-93150732D01*
X159826716Y-92950171D01*
X159902436Y-92730619D01*
X159933867Y-92500513D01*
X159919804Y-92268697D01*
X159860786Y-92044079D01*
X159759080Y-91835291D01*
X159709620Y-91761268D01*
X159522127Y-91686701D01*
X158752828Y-92456000D01*
X158747172Y-92456000D01*
X157977873Y-91686701D01*
X157790380Y-91761268D01*
X157673284Y-91961829D01*
X157597564Y-92181381D01*
X157566133Y-92411487D01*
X154748261Y-92411487D01*
X154020647Y-91683873D01*
X157980701Y-91683873D01*
X158750000Y-92453172D01*
X159519299Y-91683873D01*
X159444732Y-91496380D01*
X159244171Y-91379284D01*
X159024619Y-91303564D01*
X158794513Y-91272133D01*
X158562697Y-91286196D01*
X158338079Y-91345214D01*
X158129291Y-91446920D01*
X158055268Y-91496380D01*
X157980701Y-91683873D01*
X154020647Y-91683873D01*
X150008400Y-87671628D01*
X150008400Y-87320173D01*
X150016155Y-87345739D01*
X150051348Y-87411580D01*
X150098710Y-87469290D01*
X150156420Y-87516652D01*
X150222261Y-87551845D01*
X150293703Y-87573516D01*
X150368000Y-87580834D01*
X151521250Y-87579000D01*
X151616000Y-87484250D01*
X151616000Y-86702000D01*
X151620000Y-86702000D01*
X151620000Y-87484250D01*
X151714750Y-87579000D01*
X152868000Y-87580834D01*
X152942297Y-87573516D01*
X153013739Y-87551845D01*
X153079580Y-87516652D01*
X153137290Y-87469290D01*
X153184652Y-87411580D01*
X153219845Y-87345739D01*
X153241516Y-87274297D01*
X153248834Y-87200000D01*
X153247000Y-86796750D01*
X153152250Y-86702000D01*
X151620000Y-86702000D01*
X151616000Y-86702000D01*
X151596000Y-86702000D01*
X151596000Y-86698000D01*
X151616000Y-86698000D01*
X151616000Y-86678000D01*
X151620000Y-86678000D01*
X151620000Y-86698000D01*
X153152250Y-86698000D01*
X153247000Y-86603250D01*
X153248834Y-86200000D01*
X153241516Y-86125703D01*
X153219845Y-86054261D01*
X153184652Y-85988420D01*
X153137290Y-85930710D01*
X153079580Y-85883348D01*
X153013739Y-85848155D01*
X152947922Y-85828190D01*
X152992090Y-85823840D01*
X153111410Y-85787645D01*
X153221377Y-85728866D01*
X153317764Y-85649764D01*
X153396866Y-85553377D01*
X153447846Y-85458000D01*
X156308768Y-85458000D01*
X156346000Y-85461667D01*
X156383232Y-85458000D01*
X156494594Y-85447032D01*
X156637477Y-85403689D01*
X156769160Y-85333303D01*
X156884580Y-85238580D01*
X156908323Y-85209649D01*
X158425455Y-83692518D01*
X158608862Y-83729000D01*
X158891138Y-83729000D01*
X159167991Y-83673931D01*
X159428780Y-83565908D01*
X159663484Y-83409084D01*
X159863084Y-83209484D01*
X160019908Y-82974780D01*
X160127931Y-82713991D01*
X160183000Y-82437138D01*
X160183000Y-82154862D01*
X160127931Y-81878009D01*
X160019908Y-81617220D01*
X159863084Y-81382516D01*
X159663484Y-81182916D01*
X159428780Y-81026092D01*
X159167991Y-80918069D01*
X158891138Y-80863000D01*
X158608862Y-80863000D01*
X158332009Y-80918069D01*
X158071220Y-81026092D01*
X157836516Y-81182916D01*
X157636916Y-81382516D01*
X157480092Y-81617220D01*
X157372069Y-81878009D01*
X157317000Y-82154862D01*
X157317000Y-82437138D01*
X157353482Y-82620545D01*
X156032028Y-83942000D01*
X153447846Y-83942000D01*
X153396866Y-83846623D01*
X153317764Y-83750236D01*
X153256551Y-83700000D01*
X153317764Y-83649764D01*
X153396866Y-83553377D01*
X153455645Y-83443410D01*
X153491840Y-83324090D01*
X153504062Y-83200000D01*
X153504062Y-82200000D01*
X153491840Y-82075910D01*
X153455645Y-81956590D01*
X153396866Y-81846623D01*
X153317764Y-81750236D01*
X153256551Y-81700000D01*
X153317764Y-81649764D01*
X153396866Y-81553377D01*
X153447846Y-81458000D01*
X155990768Y-81458000D01*
X156028000Y-81461667D01*
X156065232Y-81458000D01*
X156176594Y-81447032D01*
X156319477Y-81403689D01*
X156451160Y-81333303D01*
X156566580Y-81238580D01*
X156590324Y-81209649D01*
X158425455Y-79374518D01*
X158608862Y-79411000D01*
X158891138Y-79411000D01*
X159167991Y-79355931D01*
X159428780Y-79247908D01*
X159663484Y-79091084D01*
X159863084Y-78891484D01*
X160019908Y-78656780D01*
X160127931Y-78395991D01*
X160183000Y-78119138D01*
X160183000Y-77836862D01*
X160127931Y-77560009D01*
X160019908Y-77299220D01*
X159863084Y-77064516D01*
X159663484Y-76864916D01*
X159428780Y-76708092D01*
X159167991Y-76600069D01*
X158891138Y-76545000D01*
X158608862Y-76545000D01*
X158332009Y-76600069D01*
X158071220Y-76708092D01*
X157836516Y-76864916D01*
X157636916Y-77064516D01*
X157480092Y-77299220D01*
X157372069Y-77560009D01*
X157317000Y-77836862D01*
X157317000Y-78119138D01*
X157353482Y-78302545D01*
X155714028Y-79942000D01*
X153447846Y-79942000D01*
X153396866Y-79846623D01*
X153317764Y-79750236D01*
X153256551Y-79700000D01*
X153317764Y-79649764D01*
X153396866Y-79553377D01*
X153455645Y-79443410D01*
X153491840Y-79324090D01*
X153504062Y-79200000D01*
X153504062Y-78200000D01*
X153491840Y-78075910D01*
X153455645Y-77956590D01*
X153396866Y-77846623D01*
X153317764Y-77750236D01*
X153256551Y-77700000D01*
X153317764Y-77649764D01*
X153396866Y-77553377D01*
X153455645Y-77443410D01*
X153491840Y-77324090D01*
X153504062Y-77200000D01*
X153504062Y-76200000D01*
X153491840Y-76075910D01*
X153455645Y-75956590D01*
X153396866Y-75846623D01*
X153317764Y-75750236D01*
X153256551Y-75700000D01*
X153317764Y-75649764D01*
X153396866Y-75553377D01*
X153455645Y-75443410D01*
X153491840Y-75324090D01*
X153504062Y-75200000D01*
X153504062Y-74200000D01*
X153491840Y-74075910D01*
X153455645Y-73956590D01*
X153396866Y-73846623D01*
X153317764Y-73750236D01*
X153256551Y-73700000D01*
X153317764Y-73649764D01*
X153396866Y-73553377D01*
X153455645Y-73443410D01*
X153491840Y-73324090D01*
X153504062Y-73200000D01*
X153504062Y-72200000D01*
X153491840Y-72075910D01*
X153467462Y-71995546D01*
X153485446Y-71985934D01*
X153504388Y-71970388D01*
X153519934Y-71951446D01*
X153531485Y-71929835D01*
X153538598Y-71906386D01*
X153541000Y-71882000D01*
X153541000Y-67676862D01*
X157317000Y-67676862D01*
X157317000Y-67959138D01*
X157372069Y-68235991D01*
X157480092Y-68496780D01*
X157636916Y-68731484D01*
X157836516Y-68931084D01*
X158071220Y-69087908D01*
X158332009Y-69195931D01*
X158608862Y-69251000D01*
X158891138Y-69251000D01*
X159167991Y-69195931D01*
X159428780Y-69087908D01*
X159663484Y-68931084D01*
X159863084Y-68731484D01*
X160019908Y-68496780D01*
X160127931Y-68235991D01*
X160183000Y-67959138D01*
X160183000Y-67676862D01*
X160127931Y-67400009D01*
X160019908Y-67139220D01*
X159863084Y-66904516D01*
X159663484Y-66704916D01*
X159474614Y-66578717D01*
X167404969Y-66578717D01*
X167404969Y-67025283D01*
X167492090Y-67463268D01*
X167662983Y-67875842D01*
X167911082Y-68247148D01*
X168226852Y-68562918D01*
X168598158Y-68811017D01*
X169010732Y-68981910D01*
X169448717Y-69069031D01*
X169895283Y-69069031D01*
X170333268Y-68981910D01*
X170745842Y-68811017D01*
X171117148Y-68562918D01*
X171432918Y-68247148D01*
X171681017Y-67875842D01*
X171851910Y-67463268D01*
X171939031Y-67025283D01*
X171939031Y-66578717D01*
X171851910Y-66140732D01*
X171681017Y-65728158D01*
X171432918Y-65356852D01*
X171117148Y-65041082D01*
X170745842Y-64792983D01*
X170333268Y-64622090D01*
X169895283Y-64534969D01*
X169448717Y-64534969D01*
X169010732Y-64622090D01*
X168598158Y-64792983D01*
X168226852Y-65041082D01*
X167911082Y-65356852D01*
X167662983Y-65728158D01*
X167492090Y-66140732D01*
X167404969Y-66578717D01*
X159474614Y-66578717D01*
X159428780Y-66548092D01*
X159167991Y-66440069D01*
X158891138Y-66385000D01*
X158608862Y-66385000D01*
X158332009Y-66440069D01*
X158071220Y-66548092D01*
X157836516Y-66704916D01*
X157636916Y-66904516D01*
X157480092Y-67139220D01*
X157372069Y-67400009D01*
X157317000Y-67676862D01*
X153541000Y-67676862D01*
X153541000Y-63904000D01*
X169639815Y-63904000D01*
X170234281Y-63962287D01*
X170775141Y-64125583D01*
X171273982Y-64390823D01*
X171711804Y-64747900D01*
X172071936Y-65183225D01*
X172340650Y-65680202D01*
X172507719Y-66219913D01*
X172566774Y-66781788D01*
X172515568Y-67344439D01*
X172356053Y-67886428D01*
X172094302Y-68387111D01*
X171740288Y-68827417D01*
X171307493Y-69190576D01*
X170812401Y-69462754D01*
X170273872Y-69633586D01*
X169692313Y-69698818D01*
X169672000Y-69696817D01*
X169543009Y-69709521D01*
X169418976Y-69747147D01*
X169304665Y-69808247D01*
X169229576Y-69869871D01*
X165165575Y-73933873D01*
X165140474Y-73954473D01*
X165119874Y-73979574D01*
X165119871Y-73979577D01*
X165058247Y-74054666D01*
X164997147Y-74168977D01*
X164959521Y-74293010D01*
X164946817Y-74422000D01*
X164950001Y-74454329D01*
X164950000Y-118722000D01*
X154210319Y-118722000D01*
X154178000Y-118718817D01*
X154145682Y-118722000D01*
X154145681Y-118722000D01*
X154049010Y-118731521D01*
X153924976Y-118769147D01*
X153810666Y-118830246D01*
X153710473Y-118912473D01*
X153628246Y-119012666D01*
X153567147Y-119126976D01*
X153529521Y-119251010D01*
X153516817Y-119380000D01*
X153520001Y-119412328D01*
X153520000Y-121887815D01*
X153461713Y-122482281D01*
X153298418Y-123023139D01*
X153033180Y-123521979D01*
X152676095Y-123959809D01*
X152240776Y-124319936D01*
X151743798Y-124588650D01*
X151204090Y-124755718D01*
X150642212Y-124814774D01*
X150079561Y-124763568D01*
X149537572Y-124604053D01*
X149036889Y-124342302D01*
X148596583Y-123988288D01*
X148233424Y-123555493D01*
X147961246Y-123060401D01*
X147790414Y-122521872D01*
X147724090Y-121930575D01*
X147724000Y-121917690D01*
X147724000Y-121696717D01*
X148354969Y-121696717D01*
X148354969Y-122143283D01*
X148442090Y-122581268D01*
X148612983Y-122993842D01*
X148861082Y-123365148D01*
X149176852Y-123680918D01*
X149548158Y-123929017D01*
X149960732Y-124099910D01*
X150398717Y-124187031D01*
X150845283Y-124187031D01*
X151283268Y-124099910D01*
X151695842Y-123929017D01*
X152067148Y-123680918D01*
X152382918Y-123365148D01*
X152631017Y-122993842D01*
X152801910Y-122581268D01*
X152889031Y-122143283D01*
X152889031Y-121696717D01*
X152801910Y-121258732D01*
X152631017Y-120846158D01*
X152382918Y-120474852D01*
X152067148Y-120159082D01*
X151695842Y-119910983D01*
X151283268Y-119740090D01*
X150845283Y-119652969D01*
X150398717Y-119652969D01*
X149960732Y-119740090D01*
X149548158Y-119910983D01*
X149176852Y-120159082D01*
X148861082Y-120474852D01*
X148612983Y-120846158D01*
X148442090Y-121258732D01*
X148354969Y-121696717D01*
X147724000Y-121696717D01*
X147724000Y-119412318D01*
X147727183Y-119380000D01*
X147714479Y-119251010D01*
X147676853Y-119126976D01*
X147615754Y-119012666D01*
X147533527Y-118912473D01*
X147433334Y-118830246D01*
X147319024Y-118769147D01*
X147194990Y-118731521D01*
X147098319Y-118722000D01*
X147066000Y-118718817D01*
X147033682Y-118722000D01*
X122578000Y-118722000D01*
X122578000Y-112883937D01*
X141011000Y-112883937D01*
X141011000Y-113176063D01*
X141067990Y-113462575D01*
X141179782Y-113732464D01*
X141342078Y-113975358D01*
X141548642Y-114181922D01*
X141791536Y-114344218D01*
X142061425Y-114456010D01*
X142347937Y-114513000D01*
X142640063Y-114513000D01*
X142926575Y-114456010D01*
X143196464Y-114344218D01*
X143439358Y-114181922D01*
X143645922Y-113975358D01*
X143803508Y-113739513D01*
X143803166Y-113880000D01*
X143810484Y-113954297D01*
X143832155Y-114025739D01*
X143867348Y-114091580D01*
X143914710Y-114149290D01*
X143972420Y-114196652D01*
X144038261Y-114231845D01*
X144109703Y-114253516D01*
X144184000Y-114260834D01*
X144937250Y-114259000D01*
X145032000Y-114164250D01*
X145032000Y-113032000D01*
X145036000Y-113032000D01*
X145036000Y-114164250D01*
X145130750Y-114259000D01*
X145884000Y-114260834D01*
X145958297Y-114253516D01*
X146029739Y-114231845D01*
X146095580Y-114196652D01*
X146153290Y-114149290D01*
X146200652Y-114091580D01*
X146235845Y-114025739D01*
X146257516Y-113954297D01*
X146264834Y-113880000D01*
X146263000Y-113126750D01*
X146168250Y-113032000D01*
X145036000Y-113032000D01*
X145032000Y-113032000D01*
X145012000Y-113032000D01*
X145012000Y-113028000D01*
X145032000Y-113028000D01*
X145032000Y-111895750D01*
X145036000Y-111895750D01*
X145036000Y-113028000D01*
X146168250Y-113028000D01*
X146263000Y-112933250D01*
X146264834Y-112180000D01*
X146257516Y-112105703D01*
X146235845Y-112034261D01*
X146200652Y-111968420D01*
X146153290Y-111910710D01*
X146095580Y-111863348D01*
X146029739Y-111828155D01*
X145958297Y-111806484D01*
X145884000Y-111799166D01*
X145130750Y-111801000D01*
X145036000Y-111895750D01*
X145032000Y-111895750D01*
X144937250Y-111801000D01*
X144184000Y-111799166D01*
X144109703Y-111806484D01*
X144038261Y-111828155D01*
X143972420Y-111863348D01*
X143914710Y-111910710D01*
X143867348Y-111968420D01*
X143832155Y-112034261D01*
X143810484Y-112105703D01*
X143803166Y-112180000D01*
X143803508Y-112320487D01*
X143645922Y-112084642D01*
X143439358Y-111878078D01*
X143196464Y-111715782D01*
X142926575Y-111603990D01*
X142640063Y-111547000D01*
X142347937Y-111547000D01*
X142061425Y-111603990D01*
X141791536Y-111715782D01*
X141548642Y-111878078D01*
X141342078Y-112084642D01*
X141179782Y-112327536D01*
X141067990Y-112597425D01*
X141011000Y-112883937D01*
X122578000Y-112883937D01*
X122578000Y-82582319D01*
X122581183Y-82550000D01*
X122568479Y-82421009D01*
X122530853Y-82296976D01*
X122469753Y-82182665D01*
X122408129Y-82107576D01*
X122408127Y-82107574D01*
X122387527Y-82082473D01*
X122362426Y-82061873D01*
X115572553Y-75272000D01*
X119927166Y-75272000D01*
X119934484Y-75346297D01*
X119956155Y-75417739D01*
X119991348Y-75483580D01*
X120038710Y-75541290D01*
X120096420Y-75588652D01*
X120162261Y-75623845D01*
X120233703Y-75645516D01*
X120308000Y-75652834D01*
X121061250Y-75651000D01*
X121156000Y-75556250D01*
X121156000Y-74424000D01*
X121160000Y-74424000D01*
X121160000Y-75556250D01*
X121254750Y-75651000D01*
X122008000Y-75652834D01*
X122082297Y-75645516D01*
X122153739Y-75623845D01*
X122219580Y-75588652D01*
X122277290Y-75541290D01*
X122324652Y-75483580D01*
X122359845Y-75417739D01*
X122381516Y-75346297D01*
X122388834Y-75272000D01*
X122387000Y-74518750D01*
X122292250Y-74424000D01*
X121160000Y-74424000D01*
X121156000Y-74424000D01*
X120023750Y-74424000D01*
X119929000Y-74518750D01*
X119927166Y-75272000D01*
X115572553Y-75272000D01*
X110170423Y-69869871D01*
X110095334Y-69808247D01*
X109981023Y-69747147D01*
X109856990Y-69709521D01*
X109792336Y-69703153D01*
X109792209Y-69703140D01*
X109790309Y-69702954D01*
X109728000Y-69696817D01*
X109727861Y-69696831D01*
X109165719Y-69641713D01*
X108624861Y-69478418D01*
X108126021Y-69213180D01*
X107688191Y-68856095D01*
X107328064Y-68420776D01*
X107059350Y-67923798D01*
X106892282Y-67384090D01*
X106833226Y-66822212D01*
X106855386Y-66578717D01*
X107460969Y-66578717D01*
X107460969Y-67025283D01*
X107548090Y-67463268D01*
X107718983Y-67875842D01*
X107967082Y-68247148D01*
X108282852Y-68562918D01*
X108654158Y-68811017D01*
X109066732Y-68981910D01*
X109504717Y-69069031D01*
X109951283Y-69069031D01*
X110389268Y-68981910D01*
X110801842Y-68811017D01*
X111173148Y-68562918D01*
X111488918Y-68247148D01*
X111737017Y-67875842D01*
X111907910Y-67463268D01*
X111995031Y-67025283D01*
X111995031Y-66578717D01*
X111907910Y-66140732D01*
X111737017Y-65728158D01*
X111488918Y-65356852D01*
X111173148Y-65041082D01*
X110801842Y-64792983D01*
X110389268Y-64622090D01*
X109951283Y-64534969D01*
X109504717Y-64534969D01*
X109066732Y-64622090D01*
X108654158Y-64792983D01*
X108282852Y-65041082D01*
X107967082Y-65356852D01*
X107718983Y-65728158D01*
X107548090Y-66140732D01*
X107460969Y-66578717D01*
X106855386Y-66578717D01*
X106884432Y-66259560D01*
X107043947Y-65717572D01*
X107305699Y-65216887D01*
X107659714Y-64776581D01*
X108092510Y-64413423D01*
X108587599Y-64141246D01*
X109126128Y-63970414D01*
X109717425Y-63904090D01*
X109730309Y-63904000D01*
X134495000Y-63904000D01*
X134495000Y-70362000D01*
G37*
%TD.AperFunction*%
%TD*%
M02*
